<svg width="35" height="35" viewBox="0 0 35 35" fill="none" xmlns="http://www.w3.org/2000/svg">
<path d="M24.0405 15.2905C24.431 14.9 24.431 14.2668 24.0405 13.8763C23.65 13.4857 23.0168 13.4857 22.6263 13.8763L24.0405 15.2905ZM17.5001 20.4167L16.793 21.1238C17.1835 21.5143 17.8167 21.5143 18.2072 21.1238L17.5001 20.4167ZM12.3739 13.8763C11.9833 13.4857 11.3502 13.4857 10.9596 13.8763C10.5691 14.2668 10.5691 14.9 10.9596 15.2905L12.3739 13.8763ZM22.6263 13.8763L16.793 19.7096L18.2072 21.1238L24.0405 15.2905L22.6263 13.8763ZM18.2072 19.7096L12.3739 13.8763L10.9596 15.2905L16.793 21.1238L18.2072 19.7096Z" fill="#8F8F8F"/>
</svg>
