<svg width="322" height="58" viewBox="0 0 322 58" fill="none" xmlns="http://www.w3.org/2000/svg">
<rect x="0.5" y="0.5" width="321" height="57" rx="9.5" fill="white" fill-opacity="0.2" stroke="#F1F1F1" stroke-dasharray="8 8"/>
<path d="M50.3742 12.0508C49.7492 12.133 48.6489 12.389 47.9975 12.5992C45.1102 13.5499 42.4431 15.8168 40.9378 18.6231C40.5857 19.2812 40.4889 19.3909 40.3393 19.3452C38.6668 18.8333 37.1615 18.9521 35.6739 19.7108C33.9838 20.5701 32.8219 22.0235 32.3642 23.8425C32.1353 24.7749 32.1177 26.1734 32.3289 27.0875L32.4874 27.7457L32.2761 27.8828C30.8941 28.8334 29.6794 30.2137 29.0016 31.6031C27.1354 35.4331 27.9277 40.1407 30.9557 43.2486C32.1529 44.4735 33.4821 45.2962 34.9961 45.7441C35.6563 45.936 35.8236 45.9452 41.598 45.9726L47.5133 46L47.4957 40.9451L47.4693 35.8902L45.656 35.8445C43.7106 35.7988 43.6666 35.7805 43.4113 35.2869C43.2529 34.9578 43.2617 34.6745 43.4466 34.3271C43.7546 33.7512 49.7316 25.2411 49.9604 25.0491C50.3037 24.7749 50.9023 24.848 51.2104 25.2136C51.4745 25.5153 57.2665 33.8426 57.5394 34.2997C57.6362 34.4642 57.7243 34.711 57.7243 34.839C57.7243 35.1589 57.4162 35.6525 57.1433 35.7531C57.0201 35.8079 56.1486 35.8445 55.2067 35.8445H53.4991V40.9177V45.9909H58.5077C64.0181 45.9909 64.335 45.9634 65.7874 45.4333C67.3631 44.8574 68.5866 44.053 69.7838 42.8007C71.3682 41.1553 72.3629 39.254 72.8382 36.9414C73.0495 35.881 73.0583 33.7147 72.8382 32.6726C71.9668 28.4495 69.1764 25.1679 65.4529 24.0162C65.048 23.8974 64.6167 23.7694 64.4934 23.742C64.2822 23.6963 64.2558 23.6323 64.1941 23.1661C63.8773 20.4512 62.6361 17.8827 60.6379 15.8168C58.6221 13.7327 56.3863 12.5444 53.6575 12.1239C52.8741 11.9959 51.0431 11.9594 50.3742 12.0508Z" fill="white"/>
<path d="M98.3107 24.228H94.8947V34H98.3107C101.433 34 103.463 32.082 103.463 29.128C103.463 26.16 101.433 24.228 98.3107 24.228ZM96.8547 32.334V25.88H98.2407C100.299 25.88 101.461 27.098 101.461 29.128C101.461 31.158 100.299 32.334 98.2407 32.334H96.8547ZM106.89 30.136C106.89 28.638 107.59 28.19 108.752 28.19H109.27V26.132C108.192 26.132 107.38 26.65 106.89 27.448V26.244H104.93V34H106.89V30.136ZM110.086 30.094C110.086 32.516 111.654 34.126 113.614 34.126C114.846 34.126 115.728 33.538 116.19 32.866V34H118.164V26.244H116.19V27.35C115.728 26.706 114.874 26.118 113.628 26.118C111.654 26.118 110.086 27.672 110.086 30.094ZM116.19 30.122C116.19 31.592 115.21 32.404 114.132 32.404C113.082 32.404 112.088 31.564 112.088 30.094C112.088 28.624 113.082 27.84 114.132 27.84C115.21 27.84 116.19 28.652 116.19 30.122ZM119.574 30.094C119.574 32.516 121.142 34.126 123.116 34.126C124.334 34.126 125.216 33.524 125.678 32.852V34.056C125.678 35.498 124.838 36.114 123.76 36.114C122.78 36.114 122.052 35.652 121.856 34.952H119.91C120.106 36.73 121.632 37.822 123.816 37.822C126.364 37.822 127.652 36.156 127.652 34.056V26.244H125.678V27.35C125.216 26.678 124.334 26.118 123.116 26.118C121.142 26.118 119.574 27.672 119.574 30.094ZM125.678 30.122C125.678 31.592 124.698 32.404 123.62 32.404C122.57 32.404 121.576 31.564 121.576 30.094C121.576 28.624 122.57 27.84 123.62 27.84C124.698 27.84 125.678 28.652 125.678 30.122ZM139.455 26.496C139.525 25.152 138.573 24.018 136.739 24.018C134.947 24.018 133.869 25.054 133.869 26.384C133.869 27.028 134.065 27.56 134.583 28.19C133.141 28.834 132.427 29.912 132.427 31.172C132.427 32.992 133.855 34.168 136.039 34.168C137.369 34.168 138.447 33.762 139.357 32.95L140.421 34H142.829L140.463 31.662C140.673 31.34 140.869 31.004 141.065 30.626L142.045 28.904H140.001L139.203 30.234C139.175 30.276 139.161 30.318 139.133 30.346L136.669 27.91C136.053 27.266 135.773 26.846 135.773 26.37C135.773 25.894 136.151 25.544 136.683 25.544C137.201 25.544 137.579 25.866 137.551 26.496H139.455ZM136.095 32.544C135.031 32.544 134.359 31.886 134.359 31.06C134.359 30.346 134.793 29.758 135.717 29.352L138.125 31.732C137.551 32.264 136.893 32.544 136.095 32.544ZM150.551 24.228H147.135V34H150.551C153.673 34 155.703 32.082 155.703 29.128C155.703 26.16 153.673 24.228 150.551 24.228ZM149.095 32.334V25.88H150.481C152.539 25.88 153.701 27.098 153.701 29.128C153.701 31.158 152.539 32.334 150.481 32.334H149.095ZM159.13 30.136C159.13 28.638 159.83 28.19 160.992 28.19H161.51V26.132C160.432 26.132 159.62 26.65 159.13 27.448V26.244H157.17V34H159.13V30.136ZM170.32 30.122C170.32 27.672 168.57 26.118 166.33 26.118C164.09 26.118 162.34 27.672 162.34 30.122C162.34 32.558 164.034 34.126 166.274 34.126C168.528 34.126 170.32 32.558 170.32 30.122ZM164.328 30.122C164.328 28.568 165.266 27.826 166.302 27.826C167.338 27.826 168.304 28.568 168.304 30.122C168.304 31.662 167.31 32.418 166.274 32.418C165.224 32.418 164.328 31.662 164.328 30.122ZM173.718 27.364V26.244H171.758V37.696H173.718V32.894C174.194 33.524 175.062 34.126 176.28 34.126C178.268 34.126 179.822 32.516 179.822 30.094C179.822 27.672 178.268 26.118 176.28 26.118C175.076 26.118 174.18 26.706 173.718 27.364ZM177.82 30.094C177.82 31.564 176.826 32.404 175.762 32.404C174.712 32.404 173.718 31.592 173.718 30.122C173.718 28.652 174.712 27.84 175.762 27.84C176.826 27.84 177.82 28.624 177.82 30.094ZM187.886 31.662L185.884 26.244H183.686L186.794 33.804L185.114 37.668H187.2L192.002 26.244H189.916L187.886 31.662ZM200.549 30.122C200.549 27.672 198.799 26.118 196.559 26.118C194.319 26.118 192.569 27.672 192.569 30.122C192.569 32.558 194.263 34.126 196.503 34.126C198.757 34.126 200.549 32.558 200.549 30.122ZM194.557 30.122C194.557 28.568 195.495 27.826 196.531 27.826C197.567 27.826 198.533 28.568 198.533 30.122C198.533 31.662 197.539 32.418 196.503 32.418C195.453 32.418 194.557 31.662 194.557 30.122ZM209.309 26.244H207.335V30.514C207.335 31.76 206.663 32.432 205.599 32.432C204.563 32.432 203.877 31.76 203.877 30.514V26.244H201.917V30.794C201.917 32.922 203.219 34.098 205.025 34.098C205.991 34.098 206.845 33.678 207.335 33.02V34H209.309V26.244ZM213.202 30.136C213.202 28.638 213.902 28.19 215.064 28.19H215.582V26.132C214.504 26.132 213.692 26.65 213.202 27.448V26.244H211.242V34H213.202V30.136ZM220.238 34H222.198V29.87H225.32V28.316H222.198V25.81H226.272V24.228H220.238V34ZM227.662 34H229.622V26.244H227.662V34ZM228.656 25.32C229.342 25.32 229.86 24.816 229.86 24.172C229.86 23.528 229.342 23.024 228.656 23.024C227.956 23.024 227.452 23.528 227.452 24.172C227.452 24.816 227.956 25.32 228.656 25.32ZM231.559 34H233.519V23.64H231.559V34ZM238.787 27.728C239.795 27.728 240.607 28.372 240.635 29.394H236.953C237.107 28.33 237.849 27.728 238.787 27.728ZM242.469 31.564H240.355C240.103 32.082 239.641 32.502 238.801 32.502C237.821 32.502 237.037 31.858 236.939 30.71H242.609C242.651 30.458 242.665 30.206 242.665 29.954C242.665 27.644 241.083 26.118 238.843 26.118C236.547 26.118 234.951 27.672 234.951 30.122C234.951 32.558 236.589 34.126 238.843 34.126C240.761 34.126 242.049 32.992 242.469 31.564ZM250.116 31.788C250.06 28.946 245.762 29.828 245.762 28.414C245.762 27.966 246.14 27.672 246.868 27.672C247.638 27.672 248.114 28.078 248.17 28.68H250.046C249.934 27.14 248.8 26.118 246.924 26.118C245.006 26.118 243.858 27.154 243.858 28.442C243.858 31.284 248.24 30.402 248.24 31.788C248.24 32.236 247.82 32.586 247.05 32.586C246.266 32.586 245.72 32.138 245.65 31.55H243.676C243.76 32.992 245.118 34.126 247.064 34.126C248.954 34.126 250.116 33.118 250.116 31.788ZM261.207 34H263.167V24.228H261.207V28.246H257.021V24.228H255.061V34H257.021V29.842H261.207V34ZM268.428 27.728C269.436 27.728 270.248 28.372 270.276 29.394H266.594C266.748 28.33 267.49 27.728 268.428 27.728ZM272.11 31.564H269.996C269.744 32.082 269.282 32.502 268.442 32.502C267.462 32.502 266.678 31.858 266.58 30.71H272.25C272.292 30.458 272.306 30.206 272.306 29.954C272.306 27.644 270.724 26.118 268.484 26.118C266.188 26.118 264.592 27.672 264.592 30.122C264.592 32.558 266.23 34.126 268.484 34.126C270.402 34.126 271.69 32.992 272.11 31.564ZM275.697 30.136C275.697 28.638 276.397 28.19 277.559 28.19H278.077V26.132C276.999 26.132 276.187 26.65 275.697 27.448V26.244H273.737V34H275.697V30.136ZM282.729 27.728C283.737 27.728 284.549 28.372 284.577 29.394H280.895C281.049 28.33 281.791 27.728 282.729 27.728ZM286.411 31.564H284.297C284.045 32.082 283.583 32.502 282.743 32.502C281.763 32.502 280.979 31.858 280.881 30.71H286.551C286.593 30.458 286.607 30.206 286.607 29.954C286.607 27.644 285.025 26.118 282.785 26.118C280.489 26.118 278.893 27.672 278.893 30.122C278.893 32.558 280.531 34.126 282.785 34.126C284.703 34.126 285.991 32.992 286.411 31.564Z" fill="#F1F1F1"/>
</svg>
