<svg width="21" height="14" viewBox="0 0 21 14" fill="none" xmlns="http://www.w3.org/2000/svg">
<path d="M10.5039 14C16.7086 14 21 8.66353 21 7C21 5.32824 16.7008 0 10.5039 0C4.37661 0 0 5.32824 0 7C0 8.66353 4.37661 14 10.5039 14ZM10.5039 11.5871C8.08705 11.5871 6.17374 9.50353 6.16599 7C6.15824 4.43059 8.08705 2.41294 10.5039 2.41294C12.8975 2.41294 14.834 4.43059 14.834 7C14.834 9.50353 12.8975 11.5871 10.5039 11.5871ZM10.5039 8.65529C11.3637 8.65529 12.0764 7.90588 12.0764 7C12.0764 6.08588 11.3637 5.33647 10.5039 5.33647C9.6363 5.33647 8.92364 6.08588 8.92364 7C8.92364 7.90588 9.6363 8.65529 10.5039 8.65529Z" fill="#8F8F8F"/>
</svg>
