<svg width="30" height="31" viewBox="0 0 30 31" fill="none" xmlns="http://www.w3.org/2000/svg">
<path d="M24.2578 3.39669C24.0703 3.4754 23.8008 3.73575 23.6953 3.94766C23.584 4.16563 23.5898 4.68633 23.707 4.92247C23.7598 5.03145 24.375 5.70958 25.0664 6.43008L26.332 7.75H23.0391C20.3438 7.75 19.6406 7.76817 19.1719 7.84688C16.8516 8.22833 14.8125 9.74805 13.7227 11.9217C13.4062 12.5453 13.1191 13.3748 13.0078 13.9561C12.9727 14.1559 12.9082 14.8098 12.8613 15.4092C12.7441 16.935 12.5449 17.6131 11.9238 18.5879C11.666 18.9875 11.0391 19.6656 10.6641 19.9502C10.3535 20.1924 9.79688 20.5012 9.43359 20.6404C8.53125 20.9855 8.70117 20.9734 4.59961 21.0098L0.791016 21.04L0.556641 21.1793C0.1875 21.3973 0.0292969 21.6818 0.0292969 22.1299C0.0292969 22.5779 0.1875 22.8625 0.556641 23.0805L0.791016 23.2197H4.51172C8.4668 23.2197 8.58398 23.2137 9.58594 22.917C11.7598 22.2691 13.5703 20.592 14.4316 18.4063C14.7891 17.5102 15 16.4082 15 15.4092C15 14.4949 15.3809 13.2355 15.8789 12.4666C16.5352 11.4676 17.4609 10.7047 18.5391 10.293C19.3418 9.97813 19.4414 9.97207 22.998 9.94786L26.3379 9.92364L25.0371 11.2799C23.7188 12.6482 23.5547 12.8723 23.5547 13.2719C23.5605 13.732 23.9297 14.2225 24.3633 14.3496C24.6328 14.4223 24.6445 14.4223 24.9316 14.3436C25.1309 14.2891 25.5234 13.9137 27.4746 11.9096C29.0039 10.3293 29.8125 9.45743 29.8887 9.29395C30.0234 8.99727 30.0293 8.72481 29.9121 8.42813C29.7891 8.11934 25.4355 3.60254 25.1074 3.44512C24.8555 3.32403 24.4922 3.29981 24.2578 3.39669Z" fill="white"/>
<path d="M0.615228 7.84685C0.339837 7.99821 0.228509 8.12536 0.111322 8.38571C-0.0996157 8.85798 0.0351499 9.4029 0.445306 9.7238L0.662103 9.89939L4.41796 9.93571C7.62304 9.95993 8.23241 9.98415 8.58983 10.0689C9.4453 10.2687 10.125 10.6017 10.8047 11.1406C11.3496 11.5705 11.5137 11.6431 11.8769 11.6129C12.5859 11.5523 13.0312 10.7773 12.75 10.0931C12.5332 9.54821 11.0683 8.55525 9.90233 8.14958C8.82421 7.78025 8.92382 7.79236 4.68749 7.76814C1.19531 7.75603 0.773431 7.76208 0.615228 7.84685Z" fill="white"/>
<path d="M24.4044 16.6443C23.8126 16.7956 23.4903 17.3769 23.6427 18.0066C23.7071 18.273 23.8302 18.4183 25.0255 19.6595L26.338 21.0158L22.881 20.9976L19.4239 20.9734L18.9083 20.8099C18.1935 20.5798 17.6368 20.2831 16.9981 19.7927C16.4591 19.381 16.3536 19.3386 15.9435 19.3689C15.1876 19.4234 14.7423 20.4285 15.1993 21.0581C15.3868 21.3246 16.0489 21.8574 16.5587 22.1601C17.5313 22.7353 18.545 23.0744 19.6231 23.1894C19.9571 23.2197 21.5978 23.2499 23.2794 23.2499H26.3321L25.0079 24.6244C23.5958 26.0956 23.5079 26.2228 23.5724 26.7132C23.6661 27.4277 24.4103 27.8576 25.0665 27.573C25.295 27.4761 29.5196 23.1773 29.8067 22.7535C29.8888 22.6263 29.9708 22.4083 29.9825 22.257C30.047 21.7121 30.0294 21.6939 27.6622 19.2357C26.4493 17.9763 25.3536 16.8804 25.2247 16.8017C24.9552 16.6382 24.6563 16.5777 24.4044 16.6443Z" fill="white"/>
</svg>
