<svg width="45" height="34" viewBox="0 0 45 34" fill="none" xmlns="http://www.w3.org/2000/svg">
<path d="M22.3742 0.0507774C21.7492 0.133045 20.6489 0.388988 19.9975 0.599228C17.1102 1.54988 14.4431 3.81682 12.9378 6.62307C12.5857 7.28121 12.4889 7.3909 12.3393 7.3452C10.6668 6.83331 9.16154 6.95214 7.67391 7.71083C5.98382 8.57007 4.82189 10.0235 4.36415 11.8425C4.13529 12.7749 4.11768 14.1734 4.32894 15.0875L4.48739 15.7457L4.27613 15.8828C2.89413 16.8334 1.67938 18.2137 1.00158 19.6031C-0.864555 23.4331 -0.072326 28.1407 2.95575 31.2486C4.15289 32.4735 5.48208 33.2962 6.99611 33.7441C7.6563 33.936 7.82355 33.9452 13.598 33.9726L19.5133 34L19.4957 28.9451L19.4693 23.8902L17.656 23.8445C15.7106 23.7988 15.6666 23.7805 15.4113 23.2869C15.2529 22.9578 15.2617 22.6745 15.4466 22.3271C15.7546 21.7512 21.7316 13.2411 21.9604 13.0491C22.3037 12.7749 22.9023 12.848 23.2104 13.2136C23.4745 13.5153 29.2665 21.8426 29.5394 22.2997C29.6362 22.4642 29.7243 22.711 29.7243 22.839C29.7243 23.1589 29.4162 23.6525 29.1433 23.7531C29.0201 23.8079 28.1486 23.8445 27.2067 23.8445H25.4991V28.9177V33.9909H30.5077C36.0181 33.9909 36.335 33.9634 37.7874 33.4333C39.3631 32.8574 40.5866 32.053 41.7838 30.8007C43.3682 29.1553 44.3629 27.254 44.8382 24.9414C45.0495 23.881 45.0583 21.7147 44.8382 20.6726C43.9668 16.4495 41.1764 13.1679 37.4529 12.0162C37.048 11.8974 36.6167 11.7694 36.4934 11.742C36.2822 11.6963 36.2558 11.6323 36.1941 11.1661C35.8773 8.45124 34.6361 5.88266 32.6379 3.81682C30.6221 1.7327 28.3863 0.544384 25.6575 0.123901C24.8741 -0.00407028 23.0431 -0.0406342 22.3742 0.0507774Z" fill="white"/>
</svg>
