<svg width="332" height="537" viewBox="0 0 332 537" fill="none" xmlns="http://www.w3.org/2000/svg">
<path d="M231.317 439.639L219.161 432.516V378.932L210.409 362.42V324.053H212.029V362.096L220.782 378.608V431.545L231.317 437.696L285.126 404.672L285.937 406.129L231.317 439.639Z" fill="url(#paint0_linear_7_157)"/>
<path d="M290.312 406.129C288.529 407.1 285.612 407.1 283.667 406.129C281.884 404.996 281.884 403.377 283.667 402.243C285.45 401.272 288.367 401.272 290.312 402.243C292.095 403.377 292.095 404.996 290.312 406.129Z" fill="white"/>
<path d="M219.971 470.397L207.816 463.274V409.69L199.063 393.178V354.811H200.684V392.854L209.436 409.366V462.303L219.971 468.455L273.781 435.43L274.591 436.887L219.971 470.397Z" fill="url(#paint1_linear_7_157)"/>
<path d="M278.967 436.887C277.184 437.858 274.267 437.858 272.322 436.887C270.539 435.754 270.539 434.135 272.322 433.002C274.105 432.03 277.022 432.03 278.967 433.002C280.75 434.135 280.75 435.754 278.967 436.887Z" fill="white"/>
<path d="M111.055 440.125L110.569 439.801L58.7046 407.748L59.515 406.453L111.055 438.182L134.557 424.098V390.75L152.385 362.096V324.053H154.006V362.581L136.177 391.235V425.069L111.055 440.125Z" fill="url(#paint2_linear_7_157)"/>
<path d="M60.0011 408.557C58.2182 409.528 55.3009 409.528 53.3559 408.557C51.5731 407.424 51.5731 405.805 53.3559 404.672C55.1388 403.7 58.0562 403.7 60.0011 404.672C61.7839 405.805 61.7839 407.586 60.0011 408.557Z" fill="white"/>
<path d="M111.218 470.559L110.731 470.235L58.8667 438.182L59.6771 436.725L111.218 468.617L134.719 454.533V421.184L152.547 392.368V354.487H154.168V392.854L136.339 421.67V455.504L111.218 470.559Z" fill="url(#paint3_linear_7_157)"/>
<path d="M60.1632 438.992C58.3803 439.963 55.463 439.963 53.518 438.992C51.7352 437.858 51.7352 436.24 53.518 435.106C55.3009 434.135 58.2183 434.135 60.1632 435.106C61.946 436.24 61.946 437.858 60.1632 438.992Z" fill="white"/>
<path d="M171.672 498.727V513.135L264.38 459.065V444.819L171.672 498.727Z" fill="url(#paint4_linear_7_157)"/>
<path d="M171.834 498.727V513.135L78.8022 458.903V444.657L171.834 498.727Z" fill="url(#paint5_linear_7_157)"/>
<path d="M78.8022 444.658L171.834 498.728L264.38 444.819L171.348 390.588L78.8022 444.658Z" fill="url(#paint6_linear_7_157)"/>
<path d="M171.672 480.11V495.328L257.897 445.143V429.926L171.672 480.11Z" fill="url(#paint7_linear_7_157)"/>
<path d="M171.834 480.11V495.328L85.2852 444.981V429.764L171.834 480.11Z" fill="url(#paint8_linear_7_157)"/>
<path d="M171.672 468.94V491.604L264.38 437.535V414.87L171.672 468.94Z" fill="url(#paint9_linear_7_157)"/>
<path d="M171.834 468.94V491.604L78.8022 437.373V414.709L171.834 468.94Z" fill="url(#paint10_linear_7_157)"/>
<path d="M78.8022 414.709L171.834 468.94L264.38 414.871L171.348 360.639L78.8022 414.709Z" fill="url(#paint11_linear_7_157)"/>
<path d="M171.672 450.324V465.541L257.897 415.356V400.139L171.672 450.324Z" fill="url(#paint12_linear_7_157)"/>
<path d="M171.834 450.323V465.541L85.2852 415.194V400.139L171.834 450.323Z" fill="url(#paint13_linear_7_157)"/>
<path d="M171.672 430.735V461.817L264.38 407.748V376.827L171.672 430.735Z" fill="url(#paint14_linear_7_157)"/>
<path d="M171.834 430.735V461.817L78.8022 407.586V376.665L171.834 430.735Z" fill="url(#paint15_linear_7_157)"/>
<path d="M78.8022 376.666L171.834 430.735L264.38 376.827L171.348 322.596L78.8022 376.666Z" fill="url(#paint16_linear_7_157)"/>
<path d="M171.672 411.795V427.012L257.897 376.666V361.61L171.672 411.795Z" fill="url(#paint17_linear_7_157)"/>
<path d="M171.834 411.795V427.012L85.2852 376.666V361.448L171.834 411.795Z" fill="url(#paint18_linear_7_157)"/>
<path d="M171.672 381.684V422.641L264.38 368.733V327.614L171.672 381.684Z" fill="url(#paint19_linear_7_157)"/>
<path d="M171.834 381.684V422.641L78.8022 368.571V327.452L171.834 381.684Z" fill="url(#paint20_linear_7_157)"/>
<path d="M78.8022 327.452L171.834 381.684L264.38 327.614L171.348 273.382L78.8022 327.452Z" fill="url(#paint21_linear_7_157)"/>
<path d="M107.814 363.067C107.814 365.172 106.355 365.981 104.573 365.01C102.79 363.877 101.331 361.448 101.331 359.344C101.331 357.239 102.79 356.43 104.573 357.401C106.355 358.372 107.814 360.963 107.814 363.067Z" fill="white"/>
<path d="M212.678 377.799C212.678 379.903 211.219 382.493 209.436 383.465C207.654 384.598 206.195 383.627 206.195 381.522C206.195 379.418 207.654 376.827 209.436 375.856C211.219 374.885 212.678 375.694 212.678 377.799Z" fill="white"/>
<path d="M242.824 436.563C242.824 438.668 241.365 441.258 239.582 442.229C237.8 443.363 236.341 442.391 236.341 440.287C236.341 438.182 237.8 435.592 239.582 434.621C241.365 433.649 242.824 434.459 242.824 436.563Z" fill="white"/>
<path d="M215.919 527.705L181.883 507.307L182.045 472.988L208.464 417.623V379.741H210.085V418.108V418.27L183.504 473.473V506.498L216.73 526.248L215.919 527.705Z" fill="url(#paint22_linear_7_157)"/>
<path d="M231.803 408.881C231.803 410.985 230.344 413.575 228.561 414.547C226.779 415.68 225.32 414.709 225.32 412.604C225.32 410.5 226.779 407.909 228.561 406.938C230.344 405.967 231.803 406.776 231.803 408.881Z" fill="white"/>
<path d="M266.163 527.543L206.195 492.414V482.377L206.357 482.215L227.751 448.867V410.823H229.372V449.19L229.21 449.514L207.816 482.863V491.443L266.163 525.6L277.023 519.125L277.833 520.582L266.163 527.543Z" fill="url(#paint23_linear_7_157)"/>
<path d="M62.7566 478.653L62.4325 478.492L10.4058 446.438L11.2161 444.981L62.7566 476.873L86.2578 462.789V429.44L104.086 400.625V362.743H105.707V401.11L87.8786 429.764V463.598L62.7566 478.653Z" fill="url(#paint24_linear_7_157)"/>
<path d="M11.7023 447.248C9.91942 448.219 7.00203 448.219 5.05711 447.248C3.27426 446.115 3.27426 444.496 5.05711 443.362C6.83995 442.391 9.75734 442.391 11.7023 443.362C13.4851 444.496 13.6472 446.115 11.7023 447.248Z" fill="white"/>
<path d="M130.18 425.393C130.18 427.498 128.722 428.307 126.939 427.336C125.156 426.202 123.697 423.774 123.697 421.67C123.697 419.565 125.156 418.756 126.939 419.727C128.722 420.698 130.18 423.289 130.18 425.393Z" fill="white"/>
<path d="M73.7777 508.602L53.5181 498.565L54.1664 497.108L73.6156 506.66L117.052 480.92V459.389L126.453 445.143V425.069H128.073V445.629L118.673 459.875V481.891L118.349 482.053L73.7777 508.602Z" fill="url(#paint25_linear_7_157)"/>
<path d="M54.3285 499.861C52.5456 500.832 49.6283 500.832 47.6833 499.861C45.9005 498.727 45.9005 497.108 47.6833 495.975C49.4662 495.004 52.3836 495.004 54.3285 495.975C56.1113 497.108 56.1113 498.727 54.3285 499.861Z" fill="white"/>
<path d="M149.954 398.682C149.954 400.787 148.495 401.596 146.712 400.625C144.929 399.491 143.471 397.063 143.471 394.959C143.471 392.854 144.929 392.045 146.712 393.016C148.495 394.149 149.954 396.577 149.954 398.682Z" fill="white"/>
<path d="M141.526 460.199C141.526 462.303 140.067 463.112 138.285 462.141C136.502 461.008 135.043 458.58 135.043 456.475C135.043 454.371 136.502 453.561 138.285 454.533C140.067 455.666 141.526 458.094 141.526 460.199Z" fill="white"/>
<path d="M144.119 517.344L143.309 516.049L159.678 506.498V473.473L145.902 437.373V399.329H147.523V437.211L161.299 473.311V507.307L144.119 517.344Z" fill="url(#paint26_linear_7_157)"/>
<path d="M146.712 519.125C144.929 520.096 142.012 520.096 140.067 519.125C138.284 517.992 138.284 516.373 140.067 515.24C141.85 514.268 144.767 514.268 146.712 515.24C148.495 516.211 148.495 517.992 146.712 519.125Z" fill="white"/>
<path d="M82.6917 527.057L81.8813 525.6L138.122 493.547V460.36H139.743V494.356L139.419 494.68L82.6917 527.057Z" fill="url(#paint27_linear_7_157)"/>
<path d="M85.1229 528.676C83.3401 529.648 80.4227 529.648 78.4778 528.676C76.6949 527.543 76.6949 525.924 78.4778 524.791C80.2606 523.82 83.178 523.82 85.1229 524.791C86.9058 525.924 86.9058 527.543 85.1229 528.676Z" fill="white"/>
<path d="M221.754 530.619C219.971 531.59 217.054 531.59 215.109 530.619C213.326 529.486 213.326 527.867 215.109 526.734C216.891 525.762 219.809 525.762 221.754 526.734C223.537 527.867 223.537 529.648 221.754 530.619Z" fill="white"/>
<path d="M301.982 480.92C300.199 481.891 297.282 481.891 295.337 480.92C293.554 479.787 293.554 478.168 295.337 477.035C297.12 476.063 300.037 476.063 301.982 477.035C303.765 478.168 303.765 479.787 301.982 480.92Z" fill="white"/>
<path d="M282.209 520.582C280.426 521.553 277.509 521.553 275.564 520.582C273.781 519.449 273.781 517.83 275.564 516.697C277.347 515.725 280.264 515.725 282.209 516.697C283.992 517.83 283.992 519.449 282.209 520.582Z" fill="white"/>
<path d="M251.09 353.516C251.09 355.62 249.631 358.211 247.848 359.182C246.066 360.315 244.607 359.344 244.607 357.239C244.607 355.135 246.066 352.545 247.848 351.573C249.631 350.602 251.09 351.411 251.09 353.516Z" fill="white"/>
<path d="M267.784 471.045L255.628 463.922V410.338L247.038 393.825V355.458H248.659V393.34L257.249 410.014V462.951L267.784 469.102L321.756 436.078L322.566 437.373L267.784 471.045Z" fill="url(#paint28_linear_7_157)"/>
<path d="M326.78 437.373C324.997 438.344 322.08 438.344 320.135 437.373C318.352 436.239 318.352 434.621 320.135 433.487C321.918 432.516 324.835 432.516 326.78 433.487C328.725 434.621 328.725 436.401 326.78 437.373Z" fill="white"/>
<path d="M298.254 480.111L297.444 478.654L273.132 492.576L240.069 473.311V440.287H238.448V474.283L272.808 494.195H273.618L298.254 480.111Z" fill="url(#paint29_linear_7_157)"/>
<path d="M193.877 340.889H192.256V330.852L171.024 318.872V151.482L144.93 112.144V74.263H146.55V111.659L172.645 150.997V317.901L193.877 329.881V340.889Z" fill="url(#paint30_linear_7_157)"/>
<path d="M217.54 323.081H215.919V314.987L196.632 303.655L176.048 315.797V170.423L176.21 170.099L220.619 110.202L221.916 111.173L177.669 170.909V313.044L196.632 301.874L217.54 314.016V323.081Z" fill="url(#paint31_linear_7_157)"/>
<path d="M128.56 308.997H126.939V279.372L160.489 298.475V227.893L141.364 187.745L86.4196 162.653L86.2576 162.491L55.625 127.038L56.7595 126.066L87.3921 161.357L142.498 186.45L162.11 227.731V301.227L128.56 282.124V308.997Z" fill="url(#paint32_linear_7_157)"/>
<path d="M147.199 231.778L135.043 205.876L66.8086 174.632L67.4569 173.175L136.34 204.581L148.657 231.13L147.199 231.778Z" fill="url(#paint33_linear_7_157)"/>
<path d="M152.385 330.852H150.764V318.063L165.838 309.969V198.106L153.034 172.042L126.615 162.005L105.869 137.884L107.166 136.751L127.587 160.548L154.33 170.909L167.458 197.782V310.94L152.385 319.034V330.852Z" fill="url(#paint34_linear_7_157)"/>
<path d="M161.947 164.919L147.361 135.132L138.446 131.409L104.41 91.5847L105.545 90.4515L139.419 130.114L148.657 133.837L163.406 164.11L161.947 164.919Z" fill="url(#paint35_linear_7_157)"/>
<path d="M172.483 114.411C174.631 114.411 176.372 112.671 176.372 110.525C176.372 108.38 174.631 106.64 172.483 106.64C170.334 106.64 168.593 108.38 168.593 110.525C168.593 112.671 170.334 114.411 172.483 114.411Z" fill="white"/>
<path d="M249.631 240.52C240.069 240.52 232.289 232.749 232.289 223.36C232.289 213.808 240.069 206.2 249.631 206.2C259.194 206.2 266.811 213.97 266.811 223.36C266.811 232.749 259.194 240.52 249.631 240.52ZM249.631 207.657C241.041 207.657 233.91 214.618 233.91 223.198C233.91 231.778 240.879 238.739 249.631 238.739C258.221 238.739 265.191 231.778 265.191 223.198C265.191 214.618 258.221 207.657 249.631 207.657Z" fill="white"/>
<path d="M94.0376 231.13C84.475 231.13 76.6953 223.36 76.6953 213.97C76.6953 204.581 84.475 196.81 94.0376 196.81C103.6 196.81 111.218 204.581 111.218 213.97C111.218 223.36 103.6 231.13 94.0376 231.13ZM94.0376 198.267C85.4475 198.267 78.3161 205.228 78.3161 213.808C78.3161 222.388 85.2854 229.349 94.0376 229.349C102.628 229.349 109.597 222.388 109.597 213.808C109.597 205.228 102.628 198.267 94.0376 198.267Z" fill="white"/>
<path d="M46.5488 131.732C36.9862 131.732 29.2065 123.962 29.2065 114.572C29.2065 105.183 36.9862 97.2507 46.5488 97.2507C55.9492 97.2507 63.7289 105.021 63.7289 114.411C63.7289 123.8 55.9492 131.732 46.5488 131.732ZM46.5488 98.8696C37.9587 98.8696 30.8273 105.831 30.8273 114.411C30.8273 122.991 37.7966 129.952 46.5488 129.952C55.1389 129.952 62.1082 122.991 62.1082 114.411C62.1082 105.831 55.1389 98.8696 46.5488 98.8696Z" fill="white"/>
<path d="M97.9272 140.798C88.3647 140.798 80.7471 133.027 80.7471 123.476C80.7471 113.925 88.5268 106.316 97.9272 106.316C107.49 106.316 115.269 114.087 115.269 123.476C115.107 133.027 107.49 140.798 97.9272 140.798ZM97.9272 107.935C89.3371 107.935 82.3678 114.896 82.3678 123.476C82.3678 132.056 89.3371 139.179 97.9272 139.179C106.517 139.179 113.649 132.218 113.649 123.476C113.487 114.896 106.517 107.935 97.9272 107.935Z" fill="white"/>
<path d="M50.9248 185.478C41.3622 185.478 33.7446 177.708 33.7446 168.319C33.7446 158.929 41.5243 151.159 50.9248 151.159C60.4873 151.159 68.1049 158.929 68.1049 168.319C68.1049 177.708 60.4873 185.478 50.9248 185.478ZM50.9248 152.616C42.3347 152.616 35.3654 159.577 35.3654 168.157C35.3654 176.737 42.3347 183.698 50.9248 183.698C59.5149 183.698 66.4842 176.737 66.4842 168.157C66.4842 159.577 59.5149 152.616 50.9248 152.616Z" fill="white"/>
<path d="M94.3613 94.6606C84.7988 94.6606 77.1812 86.8901 77.1812 77.5007C77.1812 68.1113 84.7988 60.3408 94.3613 60.3408C103.924 60.3408 111.541 68.1113 111.541 77.5007C111.541 86.8901 103.762 94.6606 94.3613 94.6606ZM94.3613 61.9597C85.7712 61.9597 78.8019 68.9208 78.8019 77.5007C78.8019 86.0806 85.7712 93.0417 94.3613 93.0417C102.951 93.0417 109.921 86.0806 109.921 77.5007C109.921 68.9208 102.951 61.9597 94.3613 61.9597Z" fill="white"/>
<path d="M145.74 74.1011C136.177 74.1011 128.56 66.3306 128.56 56.7793C128.56 47.2281 136.339 39.6194 145.74 39.6194C155.302 39.6194 163.082 47.39 163.082 56.7793C162.92 66.3306 155.302 74.1011 145.74 74.1011ZM145.74 41.2383C137.15 41.2383 130.18 48.1994 130.18 56.7793C130.18 65.3593 137.15 72.4823 145.74 72.4823C154.33 72.4823 161.461 65.5212 161.461 56.7793C161.299 48.1994 154.33 41.2383 145.74 41.2383Z" fill="white"/>
<path d="M172.482 41.0764C162.92 41.0764 155.302 33.3059 155.302 23.9165C155.302 14.5271 163.082 6.59473 172.482 6.59473C182.045 6.59473 189.663 14.3652 189.663 23.7546C189.663 33.144 182.045 41.0764 172.482 41.0764ZM172.482 8.21358C163.892 8.21358 156.923 15.1747 156.923 23.7546C156.923 32.3346 163.892 39.2956 172.482 39.2956C181.072 39.2956 188.042 32.3346 188.042 23.7546C188.042 15.1747 181.235 8.21358 172.482 8.21358Z" fill="white"/>
<path d="M215.433 63.0929C205.871 63.0929 198.253 55.3224 198.253 45.933C198.253 36.3817 206.033 28.6112 215.433 28.6112C224.834 28.6112 232.613 36.3817 232.613 45.933C232.775 55.3224 224.996 63.0929 215.433 63.0929ZM215.433 30.2301C206.843 30.2301 199.874 37.1911 199.874 45.933C199.874 54.5129 206.843 61.474 215.433 61.474C224.023 61.474 230.992 54.5129 230.992 45.933C231.155 37.1911 224.185 30.2301 215.433 30.2301Z" fill="white"/>
<path d="M229.209 112.63C219.647 112.63 212.029 104.859 212.029 95.47C212.029 85.9188 219.809 78.1483 229.209 78.1483C238.772 78.1483 246.39 85.9188 246.39 95.47C246.39 104.859 238.772 112.63 229.209 112.63ZM229.209 79.7671C220.619 79.7671 213.65 86.7282 213.65 95.47C213.65 104.05 220.619 111.011 229.209 111.011C237.8 111.011 244.769 104.05 244.769 95.47C244.769 86.7282 237.8 79.7671 229.209 79.7671Z" fill="white"/>
<path d="M267.784 75.8819C258.221 75.8819 250.604 68.1113 250.604 58.722C250.604 49.3326 258.383 41.5621 267.784 41.5621C277.346 41.5621 285.126 49.3326 285.126 58.722C285.126 68.1113 277.346 75.8819 267.784 75.8819ZM267.784 43.019C259.194 43.019 252.224 49.9801 252.224 58.5601C252.224 67.14 259.194 74.1011 267.784 74.1011C276.374 74.1011 283.505 67.14 283.505 58.5601C283.505 49.9801 276.374 43.019 267.784 43.019Z" fill="white"/>
<path d="M287.233 120.077C277.67 120.077 270.053 112.306 270.053 102.755C270.053 93.2036 277.832 85.595 287.233 85.595C296.795 85.595 304.575 93.3655 304.575 102.755C304.575 112.306 296.795 120.077 287.233 120.077ZM287.233 87.2138C278.643 87.2138 271.674 94.1749 271.674 102.755C271.674 111.335 278.643 118.458 287.233 118.458C295.823 118.458 302.954 111.497 302.954 102.755C302.954 94.1749 295.823 87.2138 287.233 87.2138Z" fill="white"/>
<path d="M295.661 180.946C286.099 180.946 278.319 173.175 278.319 163.624C278.319 154.073 286.099 146.464 295.661 146.464C305.224 146.464 312.841 154.234 312.841 163.624C313.003 173.175 305.224 180.946 295.661 180.946ZM295.661 148.083C287.071 148.083 279.94 155.044 279.94 163.624C279.94 172.204 286.909 179.327 295.661 179.327C304.251 179.327 311.22 172.366 311.22 163.624C311.383 155.044 304.413 148.083 295.661 148.083Z" fill="white"/>
<path d="M196.308 342.508C194.525 343.479 191.608 343.479 189.663 342.508C187.88 341.374 187.88 339.756 189.663 338.622C191.446 337.651 194.363 337.651 196.308 338.622C198.091 339.756 198.091 341.536 196.308 342.508Z" fill="white"/>
<path d="M220.295 325.51C218.512 326.481 215.595 326.481 213.65 325.51C211.867 324.376 211.867 322.758 213.65 321.624C215.433 320.653 218.35 320.653 220.295 321.624C222.078 322.758 222.078 324.538 220.295 325.51Z" fill="white"/>
<path d="M181.073 297.989V222.55L181.235 222.227L223.861 165.728L224.023 165.567L277.671 139.179L283.019 118.62L284.64 119.105L278.967 140.312L224.996 167.024L182.694 223.036V295.237L200.684 284.391V296.532H199.063V287.143L181.073 297.989Z" fill="url(#paint36_linear_7_157)"/>
<path d="M193.066 252.337L192.418 251.042L234.234 230.159L234.882 231.616L193.066 252.337Z" fill="url(#paint37_linear_7_157)"/>
<path d="M202.953 298.475C201.17 299.446 198.253 299.446 196.308 298.475C194.525 297.342 194.525 295.723 196.308 294.589C198.091 293.618 201.008 293.618 202.953 294.589C204.736 295.723 204.736 297.503 202.953 298.475Z" fill="white"/>
<path d="M131.153 311.102C129.37 312.073 126.453 312.073 124.508 311.102C122.563 310.13 122.725 308.35 124.508 307.216C126.291 306.245 129.208 306.245 131.153 307.216C132.936 308.35 132.936 310.13 131.153 311.102Z" fill="white"/>
<path d="M154.978 333.442C153.196 334.413 150.278 334.413 148.333 333.442C146.55 332.309 146.55 330.69 148.333 329.557C150.116 328.585 153.033 328.585 154.978 329.557C156.761 330.69 156.761 332.309 154.978 333.442Z" fill="white"/>
<path d="M151.413 351.088H149.792V343.317L166.162 333.604V322.11H167.783V334.575L151.413 344.126V351.088Z" fill="white"/>
<path d="M154.006 353.678C152.223 354.649 149.305 354.649 147.36 353.678C145.416 352.706 145.578 350.926 147.36 349.793C149.143 348.821 152.061 348.821 154.006 349.793C155.788 350.764 155.788 352.545 154.006 353.678Z" fill="white"/>
<path d="M170.376 327.29C170.376 329.395 168.917 330.204 167.134 329.233C165.351 328.1 163.893 325.672 163.893 323.567C163.893 321.463 165.351 320.653 167.134 321.624C168.917 322.758 170.376 325.186 170.376 327.29Z" fill="white"/>
<path d="M220.133 344.774H218.512V337.813L193.066 323.243V310.778H194.687V322.272L220.133 337.004V344.774Z" fill="white"/>
<path d="M216.081 347.364C217.864 348.336 220.781 348.336 222.726 347.364C224.509 346.231 224.509 344.612 222.726 343.479C220.944 342.508 218.026 342.508 216.081 343.479C214.298 344.612 214.136 346.231 216.081 347.364Z" fill="white"/>
<path d="M190.635 315.958C190.635 318.063 192.094 318.872 193.877 317.901C195.66 316.768 197.118 314.34 197.118 312.235C197.118 310.13 195.66 309.321 193.877 310.292C192.094 311.264 190.635 313.854 190.635 315.958Z" fill="white"/>
<path d="M119.484 342.993H117.863V330.528L147.523 313.53V304.626H149.144V314.501L119.484 331.499V342.993Z" fill="white"/>
<path d="M122.076 345.422C120.294 346.393 117.376 346.393 115.431 345.422C113.486 344.45 113.648 342.67 115.431 341.536C117.214 340.565 120.131 340.565 122.076 341.536C123.859 342.67 123.859 344.45 122.076 345.422Z" fill="white"/>
<path d="M151.575 304.626C151.575 306.731 150.116 307.54 148.333 306.569C146.55 305.436 145.092 303.008 145.092 300.903C145.092 298.798 146.55 297.989 148.333 298.96C150.116 299.932 151.575 302.522 151.575 304.626Z" fill="white"/>
<path d="M151.575 280.667C151.575 282.772 150.116 283.581 148.333 282.61C146.55 281.477 145.092 279.048 145.092 276.944C145.092 274.839 146.55 274.03 148.333 275.001C150.116 275.973 151.575 278.563 151.575 280.667Z" fill="white"/>
<path d="M151.575 234.044C151.575 236.149 150.116 236.958 148.333 235.987C146.55 234.854 145.092 232.425 145.092 230.321C145.092 228.216 146.55 227.407 148.333 228.378C150.116 229.35 151.575 231.94 151.575 234.044Z" fill="white"/>
<path d="M165.189 164.433C165.189 166.538 163.73 167.347 161.948 166.376C160.165 165.243 158.706 162.814 158.706 160.71C158.706 158.605 160.165 157.796 161.948 158.767C163.73 159.9 165.189 162.329 165.189 164.433Z" fill="white"/>
<path d="M195.011 234.53C195.011 236.634 193.553 239.225 191.77 240.196C189.987 241.329 188.528 240.358 188.528 238.253C188.528 236.149 189.987 233.559 191.77 232.587C193.553 231.616 195.011 232.425 195.011 234.53Z" fill="white"/>
<path d="M194.687 251.204C194.687 253.309 193.228 255.899 191.446 256.87C189.663 258.003 188.204 257.032 188.204 254.927C188.204 252.823 189.663 250.233 191.446 249.261C193.228 248.128 194.687 249.1 194.687 251.204Z" fill="white"/>
<path d="M195.498 176.899C195.498 179.003 194.039 181.593 192.256 182.565C190.473 183.698 189.015 182.726 189.015 180.622C189.015 178.517 190.473 175.927 192.256 174.956C194.039 173.985 195.498 174.794 195.498 176.899Z" fill="white"/>
<path d="M180.262 128.171C180.262 130.275 178.804 132.866 177.021 133.837C175.238 134.97 173.779 133.999 173.779 131.894C173.779 129.79 175.238 127.2 177.021 126.228C178.804 125.257 180.262 126.066 180.262 128.171Z" fill="white"/>
<path d="M192.256 179.812L190.959 178.841L214.299 147.435L214.461 147.273L248.335 130.114L263.57 74.7486L265.029 75.2343L249.631 131.247L249.307 131.409L215.433 148.73L192.256 179.812Z" fill="url(#paint38_linear_7_157)"/>
<path d="M176.372 131.57L175.238 130.599L199.711 98.7077L209.274 60.6646L210.895 60.9883L201.332 99.3552L201.17 99.5171L176.372 131.57Z" fill="url(#paint39_linear_7_157)"/>
<path d="M190.797 238.901L189.5 237.929L215.919 202.8L216.081 202.638L280.912 170.261L281.722 171.718L217.054 204.095L190.797 238.901Z" fill="url(#paint40_linear_7_157)"/>
<path d="M149.468 277.753H147.847V252.823L139.257 235.016L109.11 221.579L109.759 220.122L140.391 233.882L149.468 252.337V277.753Z" fill="url(#paint41_linear_7_157)"/>
<path d="M173.293 40.4288H171.672V107.935H173.293V40.4288Z" fill="url(#paint42_linear_7_157)"/>
<path d="M251.576 216.722C250.117 216.722 248.983 217.046 248.173 217.694C247.686 218.017 247.038 218.665 246.714 219.313C246.228 220.122 245.903 220.77 245.903 221.417H254.331L254.007 223.036H245.741C245.741 223.198 245.741 223.36 245.741 223.522C245.741 224.169 245.741 224.493 245.741 224.655H253.683L253.359 226.274H246.066C246.39 228.216 247.2 229.511 248.497 230.321C249.469 230.806 250.442 231.13 251.576 231.13C253.035 231.13 254.331 230.806 255.142 229.997V232.587C254.169 233.073 253.035 233.235 251.738 233.235C248.01 233.235 245.579 231.616 244.283 228.54C243.959 227.893 243.796 227.083 243.634 226.274H241.689L242.014 224.655H243.31C243.31 224.331 243.31 224.007 243.31 223.522C243.31 223.36 243.31 223.198 243.31 223.036H241.689L242.014 221.417H243.472C243.959 218.665 245.255 216.884 247.524 215.589C248.821 214.942 250.28 214.456 251.9 214.456C253.359 214.456 254.656 214.78 255.79 215.427L255.304 217.694C253.845 217.046 252.711 216.722 251.576 216.722Z" fill="white"/>
<path d="M294.364 152.292V154.72H296.796V152.292H298.74V154.882C299.227 155.044 299.713 155.044 300.199 155.368C301.01 155.691 301.658 156.339 302.144 156.987C302.63 157.796 302.792 158.605 302.792 159.415C302.792 160.224 302.63 160.872 302.144 161.519C301.658 162.167 301.172 162.814 300.199 163.138C301.334 163.462 302.144 163.948 302.792 164.757C303.441 165.566 303.603 166.376 303.603 167.509C303.603 168.319 303.441 169.128 303.117 169.937C302.792 170.585 302.306 171.232 301.82 171.556C301.334 171.88 300.685 172.204 299.875 172.528C299.551 172.689 299.227 172.689 298.74 172.689V175.28H296.796V172.851H294.364V175.28H292.419V172.851H289.988V154.72H292.419V152.292H294.364ZM292.419 162.329H296.309C297.444 162.329 298.092 162.329 298.578 162.167C299.227 162.005 299.713 161.681 299.875 161.196C300.199 160.71 300.361 160.224 300.361 159.577C300.361 158.929 300.199 158.443 299.875 157.958C299.551 157.472 299.227 157.148 298.578 156.987C298.092 156.825 297.12 156.663 295.823 156.663H292.257V162.329H292.419ZM292.419 170.585H296.958C297.768 170.585 298.254 170.585 298.578 170.423C299.065 170.261 299.551 170.099 300.037 169.937C300.361 169.775 300.685 169.452 301.01 168.966C301.172 168.48 301.334 167.995 301.334 167.509C301.334 166.862 301.172 166.214 300.847 165.728C300.523 165.243 300.037 164.919 299.389 164.757C298.74 164.595 297.93 164.433 296.796 164.433H292.582V170.585H292.419Z" fill="white"/>
<path d="M285.775 100.974H289.664V102.755H286.099C286.261 103.079 286.261 103.402 286.261 103.888C286.261 104.536 286.099 105.345 285.775 106.154C285.45 106.964 284.802 107.773 284.154 108.583C284.802 108.421 285.45 108.259 285.937 108.259C286.585 108.259 287.395 108.421 288.206 108.583C289.664 108.906 290.637 109.068 291.123 109.068C291.771 109.068 292.582 108.906 293.554 108.421L294.203 110.525C293.392 110.849 292.906 111.011 292.42 111.173C291.933 111.335 291.609 111.335 291.123 111.335C290.799 111.335 290.475 111.335 290.151 111.173C289.989 111.173 289.34 111.011 288.53 110.687C287.719 110.363 287.071 110.202 286.909 110.202C286.585 110.202 286.099 110.04 285.775 110.04C285.126 110.04 284.478 110.202 283.83 110.363C283.181 110.525 282.533 110.849 282.047 111.173L281.236 109.068C282.047 108.583 282.695 107.935 283.181 107.126C283.667 106.316 283.992 105.345 283.992 104.212C283.992 103.726 283.992 103.24 283.83 102.755H281.398V100.974H283.343C283.019 100.003 282.857 99.3552 282.857 99.0315C282.857 98.5458 282.695 98.222 282.695 97.7364C282.695 95.9556 283.343 94.6605 284.64 93.6892C285.612 92.8798 286.909 92.556 288.368 92.556C289.826 92.556 291.123 93.0417 292.096 93.8511C293.068 94.6606 293.716 95.7937 293.878 97.2507L291.609 97.5745C291.447 96.6032 291.123 95.7937 290.475 95.3081C289.826 94.8224 289.178 94.4987 288.206 94.4987C287.233 94.4987 286.585 94.8224 285.937 95.3081C285.288 95.7937 284.964 96.6032 284.964 97.4126C285.126 98.222 285.288 99.5171 285.775 100.974Z" fill="white"/>
<path d="M228.561 106.802V104.536C227.427 104.374 226.617 104.212 225.806 103.726C225.158 103.402 224.51 102.755 224.023 101.945C223.537 101.136 223.213 100.165 223.213 99.0315L225.482 98.5458C225.644 99.679 225.968 100.65 226.454 101.136C227.103 101.945 227.751 102.431 228.724 102.431V95.6319C227.751 95.47 226.941 95.1462 225.968 94.4987C225.32 94.1749 224.672 93.5274 224.347 92.8798C224.023 92.2323 223.699 91.4228 223.699 90.4515C223.699 88.8327 224.185 87.5376 225.32 86.5663C226.13 85.9187 227.103 85.4331 228.724 85.4331V84.2999H230.02V85.4331C231.317 85.595 232.289 85.9187 233.1 86.5663C234.072 87.3757 234.72 88.5089 234.882 89.804L232.613 90.1278C232.451 89.3183 232.289 88.6708 231.803 88.1851C231.317 87.6995 230.831 87.3757 230.02 87.2138V93.5274C231.155 93.8511 231.803 94.013 232.289 94.1749C232.938 94.4987 233.586 94.8224 233.91 95.3081C234.396 95.7938 234.72 96.2794 234.882 96.927C235.045 97.5745 235.207 98.222 235.207 98.8696C235.207 100.327 234.72 101.622 233.748 102.755C232.775 103.726 231.479 104.374 230.02 104.374V106.64H228.561V106.802ZM228.561 87.3757C227.751 87.5376 226.941 87.8614 226.454 88.347C225.968 88.8327 225.644 89.6421 225.644 90.2896C225.644 91.0991 225.806 91.7466 226.292 92.2323C226.779 92.7179 227.427 93.2036 228.399 93.5274V87.3757H228.561ZM229.858 102.755C230.668 102.593 231.479 102.269 231.965 101.622C232.451 100.974 232.775 100.165 232.775 99.1934C232.775 98.3839 232.613 97.7364 232.127 97.2507C231.803 96.7651 230.993 96.2794 229.696 95.9556V102.755H229.858Z" fill="white"/>
<path d="M213.326 54.6748V50.6276H208.139V48.8469H213.326V47.0661H208.139V45.4473H212.353L207.329 36.7054H209.76L213.326 43.019C213.65 43.6665 213.974 44.3141 214.298 44.9616C214.46 44.476 214.785 43.8284 215.271 43.019L218.674 36.7054H221.268L216.243 45.4473H220.457V47.228H215.433V49.0088H220.457V50.7895H215.433V54.8367H213.326V54.6748Z" fill="white"/>
<path d="M47.6833 107.611C46.2246 107.611 45.0901 107.935 44.2797 108.583C43.7935 108.906 43.1452 109.554 42.821 110.202C42.3348 111.011 42.0106 111.659 42.0106 112.306H50.4386L50.1145 113.925H41.8486C41.8486 114.087 41.8486 114.249 41.8486 114.411C41.8486 115.058 41.8486 115.382 41.8486 115.544H49.7903L49.4662 117.163H42.1727C42.4969 119.105 43.3072 120.4 44.6039 121.21C45.5763 121.695 46.5488 122.019 47.6833 122.019C49.142 122.019 50.4386 121.695 51.249 120.886V123.476C50.2766 123.962 49.142 124.124 47.8454 124.124C44.1176 124.124 41.6865 122.505 40.3899 119.429C40.0657 118.781 39.9036 117.972 39.7416 117.163H37.7966L38.1208 115.544H39.4174C39.4174 115.22 39.4174 114.896 39.4174 114.411C39.4174 114.249 39.4174 114.087 39.4174 113.925H37.7966L38.1208 112.306H39.4174C39.9036 109.554 41.2002 107.773 43.4693 106.478C44.7659 105.831 46.2246 105.345 47.8454 105.345C49.3041 105.345 50.6007 105.669 51.7352 106.316L51.249 108.583C50.1145 108.097 48.9799 107.611 47.6833 107.611Z" fill="white"/>
<path d="M171.51 12.0988V14.5271H173.942V12.0988H175.886V14.689C176.373 14.8509 176.859 14.8509 177.345 15.1746C178.156 15.4984 178.804 16.146 179.29 16.7935C179.776 17.6029 179.938 18.4124 179.938 19.2218C179.938 20.0312 179.776 20.6788 179.29 21.3263C178.804 21.9738 178.318 22.6214 177.345 22.9452C178.48 23.2689 179.29 23.7546 179.938 24.564C180.587 25.3734 180.749 26.1829 180.749 27.3161C180.749 28.1255 180.587 28.9349 180.263 29.7444C179.938 30.3919 179.452 31.0394 178.966 31.3632C178.48 31.687 177.831 32.0108 177.021 32.3345C176.697 32.4964 176.373 32.4964 175.886 32.4964V35.0866H173.942V32.6583H171.51V35.0866H169.565V32.6583H167.134V14.5271H169.565V12.0988H171.51ZM169.565 22.1357H173.455C174.59 22.1357 175.238 22.1357 175.724 21.9738C176.373 21.812 176.859 21.4882 177.021 21.0025C177.345 20.5169 177.507 20.0312 177.507 19.3837C177.507 18.7361 177.345 18.2505 177.021 17.7648C176.697 17.2792 176.373 16.9554 175.724 16.7935C175.238 16.6316 174.266 16.4697 172.969 16.4697H169.403V22.1357H169.565ZM169.565 30.5538H174.104C174.914 30.5538 175.4 30.5538 175.724 30.3919C176.211 30.23 176.697 30.0681 177.183 29.9062C177.507 29.7444 177.831 29.4206 178.156 28.9349C178.318 28.4493 178.48 27.9636 178.48 27.478C178.48 26.8304 178.318 26.1829 177.993 25.6972C177.669 25.2116 177.183 24.8878 176.535 24.7259C175.886 24.564 175.076 24.4021 173.942 24.4021H169.728V30.5538H169.565Z" fill="white"/>
<path d="M93.065 76.3675H96.9549V78.1482H93.3892C93.5512 78.472 93.5512 78.7957 93.5512 79.2814C93.5512 79.9289 93.3892 80.7384 93.065 81.5478C92.7409 82.3572 92.0925 83.1667 91.4442 83.9761C92.0925 83.8142 92.7409 83.6523 93.2271 83.6523C93.8754 83.6523 94.6858 83.8142 95.4962 83.9761C96.9549 84.2999 97.9273 84.4617 98.4136 84.4617C99.0619 84.4617 99.8723 84.2999 100.845 83.8142L101.493 85.9187C100.683 86.2425 100.196 86.4044 99.7102 86.5663C99.2239 86.7281 98.8998 86.7281 98.4136 86.7281C98.0894 86.7281 97.7652 86.7281 97.4411 86.5663C97.279 86.5663 96.6307 86.4044 95.8203 86.0806C95.0099 85.7568 94.3616 85.5949 94.1996 85.5949C93.8754 85.5949 93.3892 85.4331 93.065 85.4331C92.4167 85.4331 91.7684 85.5949 91.1201 85.7568C90.4718 85.9187 89.8235 86.2425 89.3372 86.5663L88.5269 84.4617C89.3372 83.9761 89.9856 83.3285 90.4718 82.5191C90.958 81.7097 91.2822 80.7384 91.2822 79.6052C91.2822 79.1195 91.2822 78.6339 91.1201 78.1482H88.6889V76.3675H90.6339C90.3097 75.3961 90.1476 74.7486 90.1476 74.4248C90.1476 73.9392 89.9856 73.6154 89.9856 73.1297C89.9856 71.349 90.6339 70.0539 91.9305 69.0826C92.9029 68.2732 94.1996 67.9494 95.6582 67.9494C97.1169 67.9494 98.4136 68.4351 99.386 69.2445C100.358 70.0539 101.007 71.1871 101.169 72.6441L98.7377 72.9679C98.5756 71.9965 98.2515 71.1871 97.6032 70.7015C96.9549 70.2158 96.3066 69.892 95.3341 69.892C94.3616 69.892 93.7133 70.2158 93.065 70.7015C92.4167 71.349 92.0926 71.9965 92.0926 72.806C92.2546 73.7773 92.5788 74.9105 93.065 76.3675Z" fill="white"/>
<path d="M50.4386 179.974V177.708C49.3041 177.546 48.4937 177.384 47.6833 176.898C47.035 176.575 46.3867 175.927 45.9005 175.118C45.4142 174.308 45.0901 173.337 45.0901 172.204L47.3592 171.718C47.5212 172.851 47.8454 173.823 48.3316 174.308C48.9799 175.118 49.6282 175.603 50.6007 175.603V168.48C49.6282 168.319 48.8179 167.995 47.8454 167.347C47.1971 167.023 46.5488 166.376 46.2246 165.728C45.9005 165.081 45.5763 164.271 45.5763 163.3C45.5763 161.681 46.0625 160.386 47.1971 159.415C48.0075 158.767 48.9799 158.282 50.6007 158.282V157.148H51.8973V158.767C53.1939 158.929 54.1664 159.253 54.9768 159.9C55.9492 160.71 56.5976 161.843 56.7596 163.138L54.4905 163.462C54.3285 162.653 54.1664 162.005 53.6802 161.519C53.1939 161.034 52.7077 160.71 51.8973 160.548V166.862C53.0319 167.185 53.6802 167.347 54.1664 167.509C54.8147 167.833 55.463 168.157 55.7872 168.642C56.2734 169.128 56.5976 169.614 56.7596 170.261C56.9217 170.909 57.0838 171.556 57.0838 172.204C57.0838 173.661 56.5975 174.956 55.6251 176.089C54.6526 177.06 53.356 177.708 51.8973 177.708V179.974H50.4386ZM50.4386 160.548C49.6282 160.71 48.8179 161.034 48.3316 161.519C47.8454 162.005 47.5212 162.814 47.5212 163.462C47.5212 164.271 47.6833 164.919 48.1695 165.405C48.6558 165.89 49.3041 166.376 50.2766 166.7V160.548H50.4386ZM51.7352 175.927C52.5456 175.765 53.356 175.442 53.8422 174.794C54.3285 174.146 54.6526 173.337 54.6526 172.366C54.6526 171.556 54.4905 170.909 54.0043 170.423C53.6802 169.937 52.8698 169.452 51.5732 169.128V175.927H51.7352Z" fill="white"/>
<path d="M258.708 66.978V65.1973L266.973 55.646C266.001 55.646 265.191 55.646 264.542 55.646H259.194V53.8653H269.891V55.3223L262.759 63.5784L261.463 65.0354C262.435 65.0354 263.408 64.8735 264.218 64.8735H270.215V66.8161H258.708V66.978Z" fill="white"/>
<path d="M272.322 59.8551L270.701 61.1502V59.2075L272.322 57.9125V48.8469H274.591V55.9698L276.212 54.5129V56.4555L274.591 57.9125V66.8162H272.322V59.8551Z" fill="white"/>
<path d="M143.957 58.0743V59.8551H151.251V61.4739H143.957V66.0067H141.526V61.4739H140.229V59.8551H141.526V58.0743H140.229V55.9698H141.526V48.0374H147.199C148.82 48.0374 150.116 48.1993 150.927 48.5231C151.737 48.8468 152.385 49.3325 152.872 50.3038C153.358 51.1132 153.682 52.0846 153.682 53.0559C153.682 54.0272 153.52 54.8366 153.196 55.4842C152.872 56.1317 152.385 56.6174 151.737 57.103C151.089 57.4268 150.44 57.7506 149.63 57.9124C148.82 58.0743 148.009 58.0743 147.199 58.0743H143.957ZM147.199 55.9698C147.685 55.9698 148.333 55.9698 148.82 55.8079C149.306 55.646 149.792 55.4842 150.116 55.3223C150.44 55.1604 150.765 54.8366 151.089 54.351C151.251 54.0272 151.413 53.3796 151.413 52.894C151.413 52.4083 151.251 51.9227 151.089 51.5989C150.927 51.2751 150.602 50.9514 150.278 50.6276C149.954 50.4657 149.468 50.3038 148.982 50.1419C148.495 49.98 148.009 49.98 147.523 49.98H144.119V55.9698H147.199Z" fill="white"/>
<path d="M105.059 127.361H94.5237C94.5237 127.685 94.3617 128.009 94.3617 128.333C94.3617 129.304 94.6858 130.113 95.172 130.761C95.8203 131.57 96.7928 131.894 97.9273 131.894C99.0619 131.894 100.034 131.57 100.683 130.761C101.169 130.113 101.655 129.466 101.655 128.495L103.924 128.98C103.762 130.437 103.114 131.57 102.141 132.542C101.007 133.351 99.7102 133.837 97.9273 133.837C97.117 133.837 96.3066 133.675 95.3341 133.351C94.5237 133.027 93.8754 132.704 93.3892 132.056C92.4167 131.085 91.9305 129.79 91.9305 128.171C91.9305 127.847 91.9305 127.685 91.9305 127.361H91.1201V125.257H92.7409C93.2271 124.609 94.0375 123.962 95.01 123.476C95.172 123.314 95.9824 123.152 97.6032 122.667H91.2822V120.562H101.169C101.331 120.238 101.331 119.753 101.331 119.267C101.331 118.458 101.007 117.81 100.521 117.325C99.8723 116.677 99.0619 116.353 97.9273 116.353C96.7928 116.353 95.9824 116.677 95.4962 117.163C95.01 117.648 94.8479 118.296 94.6858 119.105L92.4167 118.782C92.5788 117.325 93.2271 116.353 94.1996 115.544C95.172 114.734 96.3066 114.411 97.7653 114.411C99.5481 114.411 101.007 114.734 101.979 115.544C103.114 116.515 103.6 117.81 103.6 119.429C103.6 119.753 103.6 120.077 103.438 120.562H104.897V122.667H102.628C102.303 122.991 101.979 123.314 101.493 123.476C100.845 123.8 99.5481 124.286 97.4411 124.771C97.279 124.771 96.9549 124.933 96.7928 124.933H105.221V127.361H105.059Z" fill="white"/>
<path d="M86.2578 223.036V205.067H88.5269V215.427L93.7134 210.085H96.6307L91.6064 214.942L97.117 223.198H94.3617L89.9856 216.56L88.3648 218.017V223.198H86.2578V223.036Z" fill="white"/>
<path d="M98.7378 223.036V209.923H100.683V211.866C101.169 210.895 101.655 210.247 102.141 210.085C102.628 209.761 103.114 209.599 103.6 209.599C104.41 209.599 105.059 209.761 105.869 210.247L105.059 212.351C104.573 212.028 103.924 211.866 103.438 211.866C102.952 211.866 102.466 212.028 102.141 212.351C101.817 212.675 101.493 212.999 101.331 213.485C101.007 214.294 101.007 215.104 101.007 216.075V222.874H98.7378V223.036Z" fill="white"/>
<defs>
<linearGradient id="paint0_linear_7_157" x1="273.204" y1="368.352" x2="198.93" y2="387.551" gradientUnits="userSpaceOnUse">
<stop offset="0.0151515" stop-color="#FFA98C"/>
<stop offset="0.074826" stop-color="#C46AA7"/>
<stop offset="0.1334" stop-color="#9033C0"/>
<stop offset="0.1616" stop-color="#7C1DC9"/>
<stop offset="0.3203" stop-color="#6E41D2"/>
<stop offset="0.67" stop-color="#4C9BE8"/>
<stop offset="1" stop-color="#2AF6FF"/>
</linearGradient>
<linearGradient id="paint1_linear_7_157" x1="261.859" y1="399.11" x2="187.585" y2="418.309" gradientUnits="userSpaceOnUse">
<stop offset="0.0151515" stop-color="#FFA98C"/>
<stop offset="0.074826" stop-color="#C46AA7"/>
<stop offset="0.1334" stop-color="#9033C0"/>
<stop offset="0.1616" stop-color="#7C1DC9"/>
<stop offset="0.3203" stop-color="#6E41D2"/>
<stop offset="0.67" stop-color="#4C9BE8"/>
<stop offset="1" stop-color="#2AF6FF"/>
</linearGradient>
<linearGradient id="paint2_linear_7_157" x1="95.6622" y1="358.798" x2="137.771" y2="387.174" gradientUnits="userSpaceOnUse">
<stop offset="0.0151515" stop-color="#FFA98C"/>
<stop offset="0.074826" stop-color="#C46AA7"/>
<stop offset="0.1334" stop-color="#9033C0"/>
<stop offset="0.1616" stop-color="#7C1DC9"/>
<stop offset="0.3203" stop-color="#6E41D2"/>
<stop offset="0.67" stop-color="#4C9BE8"/>
<stop offset="1" stop-color="#2AF6FF"/>
</linearGradient>
<linearGradient id="paint3_linear_7_157" x1="95.8648" y1="389.151" x2="137.974" y2="417.527" gradientUnits="userSpaceOnUse">
<stop offset="0.0151515" stop-color="#FFA98C"/>
<stop offset="0.074826" stop-color="#C46AA7"/>
<stop offset="0.1334" stop-color="#9033C0"/>
<stop offset="0.1616" stop-color="#7C1DC9"/>
<stop offset="0.3203" stop-color="#6E41D2"/>
<stop offset="0.67" stop-color="#4C9BE8"/>
<stop offset="1" stop-color="#2AF6FF"/>
</linearGradient>
<linearGradient id="paint4_linear_7_157" x1="202.932" y1="483.47" x2="402.314" y2="423.697" gradientUnits="userSpaceOnUse">
<stop stop-color="#25054D"/>
<stop offset="1" stop-color="#45108A"/>
</linearGradient>
<linearGradient id="paint5_linear_7_157" x1="-3.03008" y1="507.611" x2="259.208" y2="448.757" gradientUnits="userSpaceOnUse">
<stop stop-color="#25054D"/>
<stop offset="1" stop-color="#45108A"/>
</linearGradient>
<linearGradient id="paint6_linear_7_157" x1="253.874" y1="288.076" x2="150.055" y2="486.168" gradientUnits="userSpaceOnUse">
<stop offset="0.7374" stop-color="#45108A"/>
<stop offset="1" stop-color="#3746A3"/>
</linearGradient>
<linearGradient id="paint7_linear_7_157" x1="156.392" y1="480.065" x2="342.61" y2="424.239" gradientUnits="userSpaceOnUse">
<stop offset="0.030303" stop-color="#7C1DC9"/>
<stop offset="0.2138" stop-color="#6E41D2"/>
<stop offset="0.6184" stop-color="#4C9BE8"/>
<stop offset="1" stop-color="#2AF6FF"/>
</linearGradient>
<linearGradient id="paint8_linear_7_157" x1="8.7169" y1="489.381" x2="253.652" y2="434.41" gradientUnits="userSpaceOnUse">
<stop offset="0.0353535" stop-color="#138BBD"/>
<stop offset="0.2257" stop-color="#169AC7"/>
<stop offset="0.5946" stop-color="#1FC3DF"/>
<stop offset="1" stop-color="#2AF6FF"/>
</linearGradient>
<linearGradient id="paint9_linear_7_157" x1="202.597" y1="457.862" x2="406.385" y2="396.769" gradientUnits="userSpaceOnUse">
<stop stop-color="#25054D"/>
<stop offset="1" stop-color="#45108A"/>
</linearGradient>
<linearGradient id="paint10_linear_7_157" x1="-5.8875" y1="482.543" x2="262.192" y2="422.378" gradientUnits="userSpaceOnUse">
<stop stop-color="#25054D"/>
<stop offset="1" stop-color="#45108A"/>
</linearGradient>
<linearGradient id="paint11_linear_7_157" x1="253.874" y1="258.196" x2="150.056" y2="456.287" gradientUnits="userSpaceOnUse">
<stop offset="0.7374" stop-color="#45108A"/>
<stop offset="1" stop-color="#3746A3"/>
</linearGradient>
<linearGradient id="paint12_linear_7_157" x1="156.392" y1="450.296" x2="342.61" y2="394.47" gradientUnits="userSpaceOnUse">
<stop offset="0.030303" stop-color="#7C1DC9"/>
<stop offset="0.2138" stop-color="#6E41D2"/>
<stop offset="0.6184" stop-color="#4C9BE8"/>
<stop offset="1" stop-color="#2AF6FF"/>
</linearGradient>
<linearGradient id="paint13_linear_7_157" x1="8.7169" y1="459.612" x2="253.652" y2="404.64" gradientUnits="userSpaceOnUse">
<stop offset="0.0353535" stop-color="#138BBD"/>
<stop offset="0.2257" stop-color="#169AC7"/>
<stop offset="0.5946" stop-color="#1FC3DF"/>
<stop offset="1" stop-color="#2AF6FF"/>
</linearGradient>
<linearGradient id="paint14_linear_7_157" x1="202.262" y1="424.02" x2="410.456" y2="361.606" gradientUnits="userSpaceOnUse">
<stop stop-color="#25054D"/>
<stop offset="1" stop-color="#45108A"/>
</linearGradient>
<linearGradient id="paint15_linear_7_157" x1="-8.74474" y1="449.24" x2="265.175" y2="387.764" gradientUnits="userSpaceOnUse">
<stop stop-color="#25054D"/>
<stop offset="1" stop-color="#45108A"/>
</linearGradient>
<linearGradient id="paint16_linear_7_157" x1="253.874" y1="220.08" x2="150.055" y2="418.171" gradientUnits="userSpaceOnUse">
<stop offset="0.7374" stop-color="#45108A"/>
<stop offset="1" stop-color="#3746A3"/>
</linearGradient>
<linearGradient id="paint17_linear_7_157" x1="156.392" y1="411.735" x2="342.61" y2="355.909" gradientUnits="userSpaceOnUse">
<stop offset="0.030303" stop-color="#7C1DC9"/>
<stop offset="0.2138" stop-color="#6E41D2"/>
<stop offset="0.6184" stop-color="#4C9BE8"/>
<stop offset="1" stop-color="#2AF6FF"/>
</linearGradient>
<linearGradient id="paint18_linear_7_157" x1="8.7169" y1="421.05" x2="253.652" y2="366.079" gradientUnits="userSpaceOnUse">
<stop offset="0.0353535" stop-color="#138BBD"/>
<stop offset="0.2257" stop-color="#169AC7"/>
<stop offset="0.5946" stop-color="#1FC3DF"/>
<stop offset="1" stop-color="#2AF6FF"/>
</linearGradient>
<linearGradient id="paint19_linear_7_157" x1="201.86" y1="380.022" x2="415.341" y2="316.023" gradientUnits="userSpaceOnUse">
<stop stop-color="#25054D"/>
<stop offset="1" stop-color="#45108A"/>
</linearGradient>
<linearGradient id="paint20_linear_7_157" x1="-12.1735" y1="405.89" x2="268.755" y2="342.841" gradientUnits="userSpaceOnUse">
<stop stop-color="#25054D"/>
<stop offset="1" stop-color="#45108A"/>
</linearGradient>
<linearGradient id="paint21_linear_7_157" x1="212.776" y1="249.186" x2="132.131" y2="403.06" gradientUnits="userSpaceOnUse">
<stop offset="0.1364" stop-color="#45108A"/>
<stop offset="1" stop-color="#3746A3"/>
</linearGradient>
<linearGradient id="paint22_linear_7_157" x1="201.648" y1="529.792" x2="191.946" y2="380.047" gradientUnits="userSpaceOnUse">
<stop offset="0.0151515" stop-color="#FFA98C"/>
<stop offset="0.074826" stop-color="#C46AA7"/>
<stop offset="0.1334" stop-color="#9033C0"/>
<stop offset="0.1616" stop-color="#7C1DC9"/>
<stop offset="0.3203" stop-color="#6E41D2"/>
<stop offset="0.67" stop-color="#4C9BE8"/>
<stop offset="1" stop-color="#2AF6FF"/>
</linearGradient>
<linearGradient id="paint23_linear_7_157" x1="251.609" y1="529.072" x2="205.714" y2="420.467" gradientUnits="userSpaceOnUse">
<stop offset="0.0151515" stop-color="#FFA98C"/>
<stop offset="0.074826" stop-color="#C46AA7"/>
<stop offset="0.1334" stop-color="#9033C0"/>
<stop offset="0.1616" stop-color="#7C1DC9"/>
<stop offset="0.3203" stop-color="#6E41D2"/>
<stop offset="0.67" stop-color="#4C9BE8"/>
<stop offset="1" stop-color="#2AF6FF"/>
</linearGradient>
<linearGradient id="paint24_linear_7_157" x1="30.9361" y1="469.069" x2="121.338" y2="391.258" gradientUnits="userSpaceOnUse">
<stop offset="0.0151515" stop-color="#FFA98C"/>
<stop offset="0.074826" stop-color="#C46AA7"/>
<stop offset="0.1334" stop-color="#9033C0"/>
<stop offset="0.1616" stop-color="#7C1DC9"/>
<stop offset="0.3203" stop-color="#6E41D2"/>
<stop offset="0.67" stop-color="#4C9BE8"/>
<stop offset="1" stop-color="#2AF6FF"/>
</linearGradient>
<linearGradient id="paint25_linear_7_157" x1="63.0359" y1="506.136" x2="135.451" y2="441.889" gradientUnits="userSpaceOnUse">
<stop offset="0.0151515" stop-color="#FFA98C"/>
<stop offset="0.074826" stop-color="#C46AA7"/>
<stop offset="0.1334" stop-color="#9033C0"/>
<stop offset="0.1616" stop-color="#7C1DC9"/>
<stop offset="0.3203" stop-color="#6E41D2"/>
<stop offset="0.67" stop-color="#4C9BE8"/>
<stop offset="1" stop-color="#2AF6FF"/>
</linearGradient>
<linearGradient id="paint26_linear_7_157" x1="148.989" y1="517.764" x2="157.244" y2="401.278" gradientUnits="userSpaceOnUse">
<stop offset="0.0151515" stop-color="#FFA98C"/>
<stop offset="0.074826" stop-color="#C46AA7"/>
<stop offset="0.1334" stop-color="#9033C0"/>
<stop offset="0.1616" stop-color="#7C1DC9"/>
<stop offset="0.3203" stop-color="#6E41D2"/>
<stop offset="0.67" stop-color="#4C9BE8"/>
<stop offset="1" stop-color="#2AF6FF"/>
</linearGradient>
<linearGradient id="paint27_linear_7_157" x1="92.4765" y1="532.36" x2="146.696" y2="466.194" gradientUnits="userSpaceOnUse">
<stop offset="0.0151515" stop-color="#FFA98C"/>
<stop offset="0.074826" stop-color="#C46AA7"/>
<stop offset="0.1334" stop-color="#9033C0"/>
<stop offset="0.1616" stop-color="#7C1DC9"/>
<stop offset="0.3203" stop-color="#6E41D2"/>
<stop offset="0.67" stop-color="#4C9BE8"/>
<stop offset="1" stop-color="#2AF6FF"/>
</linearGradient>
<linearGradient id="paint28_linear_7_157" x1="301.014" y1="457.937" x2="225.466" y2="383.111" gradientUnits="userSpaceOnUse">
<stop offset="0.0151515" stop-color="#FFA98C"/>
<stop offset="0.074826" stop-color="#C46AA7"/>
<stop offset="0.1334" stop-color="#9033C0"/>
<stop offset="0.1616" stop-color="#7C1DC9"/>
<stop offset="0.3203" stop-color="#6E41D2"/>
<stop offset="0.67" stop-color="#4C9BE8"/>
<stop offset="1" stop-color="#2AF6FF"/>
</linearGradient>
<linearGradient id="paint29_linear_7_157" x1="282.228" y1="492.467" x2="236.098" y2="440.804" gradientUnits="userSpaceOnUse">
<stop offset="0.0151515" stop-color="#FFA98C"/>
<stop offset="0.074826" stop-color="#C46AA7"/>
<stop offset="0.1334" stop-color="#9033C0"/>
<stop offset="0.1616" stop-color="#7C1DC9"/>
<stop offset="0.3203" stop-color="#6E41D2"/>
<stop offset="0.67" stop-color="#4C9BE8"/>
<stop offset="1" stop-color="#2AF6FF"/>
</linearGradient>
<linearGradient id="paint30_linear_7_157" x1="143.102" y1="75.0549" x2="190.401" y2="339.353" gradientUnits="userSpaceOnUse">
<stop offset="0.0151515" stop-color="#FFA98C"/>
<stop offset="0.074826" stop-color="#C46AA7"/>
<stop offset="0.1334" stop-color="#9033C0"/>
<stop offset="0.1616" stop-color="#7C1DC9"/>
<stop offset="0.3203" stop-color="#6E41D2"/>
<stop offset="0.67" stop-color="#4C9BE8"/>
<stop offset="1" stop-color="#2AF6FF"/>
</linearGradient>
<linearGradient id="paint31_linear_7_157" x1="201.014" y1="109.146" x2="194.546" y2="322.836" gradientUnits="userSpaceOnUse">
<stop offset="0.0151515" stop-color="#FFA98C"/>
<stop offset="0.074826" stop-color="#C46AA7"/>
<stop offset="0.1334" stop-color="#9033C0"/>
<stop offset="0.1616" stop-color="#7C1DC9"/>
<stop offset="0.3203" stop-color="#6E41D2"/>
<stop offset="0.67" stop-color="#4C9BE8"/>
<stop offset="1" stop-color="#2AF6FF"/>
</linearGradient>
<linearGradient id="paint32_linear_7_157" x1="85.6989" y1="116.623" x2="155.248" y2="299.608" gradientUnits="userSpaceOnUse">
<stop offset="0.0151515" stop-color="#FFA98C"/>
<stop offset="0.074826" stop-color="#C46AA7"/>
<stop offset="0.1334" stop-color="#9033C0"/>
<stop offset="0.1616" stop-color="#7C1DC9"/>
<stop offset="0.3203" stop-color="#6E41D2"/>
<stop offset="0.67" stop-color="#4C9BE8"/>
<stop offset="1" stop-color="#2AF6FF"/>
</linearGradient>
<linearGradient id="paint33_linear_7_157" x1="71.7284" y1="168.171" x2="152.635" y2="226.493" gradientUnits="userSpaceOnUse">
<stop offset="0.0151515" stop-color="#FFA98C"/>
<stop offset="0.074826" stop-color="#C46AA7"/>
<stop offset="0.1334" stop-color="#9033C0"/>
<stop offset="0.1616" stop-color="#7C1DC9"/>
<stop offset="0.3203" stop-color="#6E41D2"/>
<stop offset="0.67" stop-color="#4C9BE8"/>
<stop offset="1" stop-color="#2AF6FF"/>
</linearGradient>
<linearGradient id="paint34_linear_7_157" x1="128.586" y1="133.267" x2="173.057" y2="324.72" gradientUnits="userSpaceOnUse">
<stop offset="0.0151515" stop-color="#FFA98C"/>
<stop offset="0.074826" stop-color="#C46AA7"/>
<stop offset="0.1334" stop-color="#9033C0"/>
<stop offset="0.1616" stop-color="#7C1DC9"/>
<stop offset="0.3203" stop-color="#6E41D2"/>
<stop offset="0.67" stop-color="#4C9BE8"/>
<stop offset="1" stop-color="#2AF6FF"/>
</linearGradient>
<linearGradient id="paint35_linear_7_157" x1="104.357" y1="127.66" x2="163.468" y2="127.66" gradientUnits="userSpaceOnUse">
<stop offset="0.0151515" stop-color="#FFA98C"/>
<stop offset="0.074826" stop-color="#C46AA7"/>
<stop offset="0.1334" stop-color="#9033C0"/>
<stop offset="0.1616" stop-color="#7C1DC9"/>
<stop offset="0.3203" stop-color="#6E41D2"/>
<stop offset="0.67" stop-color="#4C9BE8"/>
<stop offset="1" stop-color="#2AF6FF"/>
</linearGradient>
<linearGradient id="paint36_linear_7_157" x1="264.336" y1="110.013" x2="180.217" y2="285.332" gradientUnits="userSpaceOnUse">
<stop offset="0.0151515" stop-color="#FFA98C"/>
<stop offset="0.074826" stop-color="#C46AA7"/>
<stop offset="0.1334" stop-color="#9033C0"/>
<stop offset="0.1616" stop-color="#7C1DC9"/>
<stop offset="0.3203" stop-color="#6E41D2"/>
<stop offset="0.67" stop-color="#4C9BE8"/>
<stop offset="1" stop-color="#2AF6FF"/>
</linearGradient>
<linearGradient id="paint37_linear_7_157" x1="234.626" y1="230.819" x2="192.505" y2="251.904" gradientUnits="userSpaceOnUse">
<stop offset="0.0151515" stop-color="#FFA98C"/>
<stop offset="0.074826" stop-color="#C46AA7"/>
<stop offset="0.1334" stop-color="#9033C0"/>
<stop offset="0.1616" stop-color="#7C1DC9"/>
<stop offset="0.3203" stop-color="#6E41D2"/>
<stop offset="0.67" stop-color="#4C9BE8"/>
<stop offset="1" stop-color="#2AF6FF"/>
</linearGradient>
<linearGradient id="paint38_linear_7_157" x1="271.551" y1="79.5479" x2="199.948" y2="185.257" gradientUnits="userSpaceOnUse">
<stop offset="0.0151515" stop-color="#FFA98C"/>
<stop offset="0.074826" stop-color="#C46AA7"/>
<stop offset="0.1334" stop-color="#9033C0"/>
<stop offset="0.1616" stop-color="#7C1DC9"/>
<stop offset="0.3203" stop-color="#6E41D2"/>
<stop offset="0.67" stop-color="#4C9BE8"/>
<stop offset="1" stop-color="#2AF6FF"/>
</linearGradient>
<linearGradient id="paint39_linear_7_157" x1="213.77" y1="63.3753" x2="178.989" y2="131.805" gradientUnits="userSpaceOnUse">
<stop offset="0.0151515" stop-color="#FFA98C"/>
<stop offset="0.074826" stop-color="#C46AA7"/>
<stop offset="0.1334" stop-color="#9033C0"/>
<stop offset="0.1616" stop-color="#7C1DC9"/>
<stop offset="0.3203" stop-color="#6E41D2"/>
<stop offset="0.67" stop-color="#4C9BE8"/>
<stop offset="1" stop-color="#2AF6FF"/>
</linearGradient>
<linearGradient id="paint40_linear_7_157" x1="278.205" y1="165.858" x2="187.247" y2="232.874" gradientUnits="userSpaceOnUse">
<stop offset="0.0151515" stop-color="#FFA98C"/>
<stop offset="0.074826" stop-color="#C46AA7"/>
<stop offset="0.1334" stop-color="#9033C0"/>
<stop offset="0.1616" stop-color="#7C1DC9"/>
<stop offset="0.3203" stop-color="#6E41D2"/>
<stop offset="0.67" stop-color="#4C9BE8"/>
<stop offset="1" stop-color="#2AF6FF"/>
</linearGradient>
<linearGradient id="paint41_linear_7_157" x1="115.975" y1="215.147" x2="155.216" y2="271.851" gradientUnits="userSpaceOnUse">
<stop offset="0.0151515" stop-color="#FFA98C"/>
<stop offset="0.074826" stop-color="#C46AA7"/>
<stop offset="0.1334" stop-color="#9033C0"/>
<stop offset="0.1616" stop-color="#7C1DC9"/>
<stop offset="0.3203" stop-color="#6E41D2"/>
<stop offset="0.67" stop-color="#4C9BE8"/>
<stop offset="1" stop-color="#2AF6FF"/>
</linearGradient>
<linearGradient id="paint42_linear_7_157" x1="172.547" y1="39.7544" x2="172.547" y2="110.719" gradientUnits="userSpaceOnUse">
<stop offset="0.0151515" stop-color="#FFA98C"/>
<stop offset="0.074826" stop-color="#C46AA7"/>
<stop offset="0.1334" stop-color="#9033C0"/>
<stop offset="0.1616" stop-color="#7C1DC9"/>
<stop offset="0.3203" stop-color="#6E41D2"/>
<stop offset="0.67" stop-color="#4C9BE8"/>
<stop offset="1" stop-color="#2AF6FF"/>
</linearGradient>
</defs>
</svg>
