<svg width="392" height="446" viewBox="0 0 392 446" fill="none" xmlns="http://www.w3.org/2000/svg">
<path d="M389.243 32.403C389.243 32.403 375.156 46.7704 332.281 46.7704C322.787 46.7704 311.762 46.159 299.206 44.3249C226.931 34.5428 196 0 196 0C196 0 165.068 34.5428 92.7933 44.6306C80.2371 46.4647 69.2121 47.0761 59.7183 47.0761C16.8433 47.0761 2.75581 32.7087 2.75581 32.7087C2.75581 32.7087 -38.8942 299.575 196 446C430.893 299.575 389.243 32.403 389.243 32.403Z" fill="white"/>
<path opacity="0.3" d="M92.7933 44.6306C80.2371 46.4647 69.2121 47.0761 59.7183 47.0761C16.8433 47.0761 2.75581 32.7087 2.75581 32.7087C2.75581 32.7087 -38.8942 299.575 196 446V0C196 0 165.068 34.5428 92.7933 44.6306Z" fill="#FF6100"/>
</svg>
