<svg width="479" height="479" viewBox="0 0 479 479" fill="none" xmlns="http://www.w3.org/2000/svg">
<path d="M297.518 406.424C294.808 405.477 289.738 401.024 288.907 399.313C283.304 387.964 271.451 367.411 274.992 354.501C275.591 352.292 286.014 352.341 287.843 350.58C294.492 348.985 296.886 348.852 302.455 344.25C318.913 330.642 295.756 293.673 332.528 290.167C359.459 287.592 378.959 300.801 384.528 261.024C390.097 221.248 436.295 156.399 471.937 192.487C492.384 213.206 461.214 241.435 468.246 268.601C474.929 294.421 460.948 311.551 433.153 320.341C405.358 329.113 416.346 342.705 418.856 366.431C421.882 394.926 379.84 390.988 360.589 387.516C345.079 384.708 303.702 388.047 297.518 406.424Z" fill="url(#paint0_linear_68_3292)"/>
<path d="M282.057 378.112L281.907 377.547C327.773 366.082 368.9 340.86 400.818 304.656C431.19 270.196 452.835 226.498 463.408 178.281L463.99 178.414C453.4 226.731 431.706 270.512 401.267 305.055C369.266 341.342 328.039 366.614 282.057 378.112Z" fill="#FCFDFE"/>
<path d="M421.482 378.128C399.206 365.218 359.226 356.562 332.361 358.805L332.312 358.223C359.292 355.964 399.422 364.67 421.782 377.63L421.482 378.128Z" fill="#FCFDFE"/>
<path d="M299.912 373.426L299.612 372.911C311.731 365.883 319.844 352.989 323.684 334.596C326.51 321.122 327.025 305.055 325.213 286.844L325.795 286.795C327.607 305.055 327.092 321.188 324.249 334.729C320.392 353.272 312.197 366.298 299.912 373.426Z" fill="#FCFDFE"/>
<path d="M405.389 299.954L405.073 299.455C427.233 285.034 455.045 285.781 474.462 288.971L474.362 289.553C455.045 286.396 427.399 285.632 405.389 299.954Z" fill="#FCFDFE"/>
<path d="M438.854 249.527L438.289 249.361C441.83 237.082 445.171 211.312 427.749 176.752L428.281 176.486C434.166 188.15 438.339 200.512 440.333 212.192C442.611 225.651 442.112 238.212 438.854 249.527Z" fill="#FCFDFE"/>
<path d="M372.046 386.087C357.6 383.96 343.154 381.501 328.741 378.726C328.508 378.942 323.77 347.54 338.698 331.074C368.206 299.173 348.324 270.545 342.655 253.581C333.678 229.672 338.399 203.802 362.737 203.42C389.734 202.472 394.621 157.811 389.734 117.187C385.944 97.3814 404.662 73.3393 423.314 67.8396C442.366 61.7585 461.383 74.2199 467.218 113.698C476.046 159.423 442.648 187.004 430.297 209.916C418.128 232.413 446.438 250.623 423.647 270.561C404.496 288.273 380.341 301.017 389.169 323.265C398.262 345.297 396.084 363.291 372.046 386.087Z" fill="url(#paint1_linear_68_3292)"/>
<path d="M352.729 387.948L352.147 387.931C352.147 387.649 365.962 321.603 389.767 257.319C393.059 246.918 396.633 236.417 400.091 226.265C409.35 199.083 418.909 170.97 423.447 142.973C428.518 111.687 426.722 83.5077 417.912 56.8238L418.477 56.641C427.304 83.408 429.133 111.687 424.029 143.057C419.474 171.086 409.899 199.232 400.639 226.431C397.182 236.583 393.608 247.084 390.316 257.485C366.311 322.301 352.763 387.565 352.729 387.948Z" fill="#FCFDFE"/>
<path d="M417.346 173.728L416.914 173.329C433.023 155.435 452.456 130.014 462.896 116.356C471.308 105.357 471.341 105.373 471.69 105.423L471.64 105.706L471.757 105.971C471.324 106.271 467.8 110.873 463.345 116.705C452.922 130.396 433.472 155.834 417.346 173.728Z" fill="#FCFDFE"/>
<path d="M422.217 149.204C418.893 128.701 410.431 115.209 403.931 107.517C396.749 99.0097 390.133 95.3045 389.468 95.2214C389.468 95.2214 389.535 95.2214 389.601 95.1716L389.269 94.6897C389.418 94.59 389.584 94.6066 389.983 94.7894C391.762 95.5703 398.428 99.7241 405.427 108.414C414.238 119.347 420.239 133.436 422.783 149.121L422.217 149.204Z" fill="#FCFDFE"/>
<path d="M376.169 299.389L375.587 299.322C377.864 280.248 373.409 259.728 362.371 238.328C356.619 227.163 349.271 216.246 340.543 205.845C339.912 205.098 339.695 204.832 339.612 204.699L340.128 204.4C340.178 204.483 340.543 204.915 340.992 205.463C349.753 215.897 357.117 226.864 362.903 238.062C373.991 259.562 378.463 280.198 376.169 299.389Z" fill="#FCFDFE"/>
<path d="M382.685 279.301L382.187 278.985C399.509 251.005 436.048 249.061 436.364 249.161L436.58 249.443L436.381 249.726L436.281 249.443L436.248 249.726C435.666 249.743 399.741 251.77 382.685 279.301ZM436.181 249.178L436.281 249.46L436.181 249.178Z" fill="#FCFDFE"/>
<path d="M355.14 377.181L354.558 377.164C354.857 368.857 351.898 354.701 336.005 334.414C335.141 333.317 335.141 333.317 335.174 333.151L335.756 333.234L335.457 333.201L335.723 333.084C335.773 333.167 336.088 333.583 336.471 334.048C352.463 354.468 355.455 368.774 355.14 377.181Z" fill="#FCFDFE"/>
<path d="M358.813 361.53L358.248 361.363C360.077 355.05 367.291 342.671 394.987 330.742C395.369 330.575 395.619 330.476 395.702 330.426L395.968 330.941C395.868 330.991 395.619 331.107 395.22 331.273C367.74 343.12 360.609 355.315 358.813 361.53Z" fill="#FCFDFE"/>
<path d="M437.993 247.084C437.993 344.233 359.228 426.578 258.753 431.164C154.388 435.932 66.7793 355.598 66.7793 251.554C66.7793 147.51 154.388 65.0816 258.753 67.3247C359.245 69.4847 437.993 149.935 437.993 247.084Z" fill="url(#paint2_linear_68_3292)"/>
<path d="M449.663 247.084C449.663 344.233 370.898 426.578 270.423 431.164C166.058 435.932 78.4492 355.598 78.4492 251.554C78.4492 147.51 166.058 65.0816 270.423 67.3247C370.898 69.4847 449.663 149.935 449.663 247.084Z" fill="url(#paint3_linear_68_3292)"/>
<path d="M438.574 247.217C438.574 338.75 364.282 416.194 269.691 420.331C171.66 424.617 89.5537 349.052 89.5537 251.437C89.5537 153.823 171.66 76.2636 269.675 78.191C364.282 80.0353 438.574 155.684 438.574 247.217Z" fill="url(#paint4_linear_68_3292)"/>
<path d="M231.556 255.99C239.17 246.121 242.977 231.366 242.977 211.711C242.977 192.919 239.103 178.447 231.373 168.328C223.643 158.21 212.538 153.142 198.092 153.142C168.601 153.142 153.855 172.665 153.855 211.711C153.855 230.851 157.696 245.489 165.393 255.608C173.089 265.726 183.995 270.794 198.092 270.794C212.788 270.794 223.942 265.859 231.556 255.99ZM198.341 244.26C194.069 244.26 190.96 241.585 189.048 236.251C187.12 230.918 186.156 222.809 186.156 211.96C186.156 201.11 187.12 193.052 189.048 187.801C190.977 182.551 194.069 179.926 198.341 179.926C206.554 179.926 210.66 190.609 210.66 211.96C210.643 233.493 206.554 244.26 198.341 244.26Z" fill="white"/>
<path d="M362.669 243.163C354.939 233.044 343.834 227.977 329.388 227.977C299.897 227.977 285.151 247.5 285.151 286.545C285.151 305.603 288.992 320.191 296.688 330.31C304.385 340.428 315.291 345.496 329.388 345.496C344.083 345.496 355.255 340.561 362.852 330.692C370.466 320.822 374.273 306.101 374.273 286.545C374.273 267.753 370.416 253.298 362.669 243.163ZM329.654 319.111C325.381 319.111 322.273 316.436 320.361 311.102C318.433 305.769 317.468 297.661 317.468 286.811C317.468 275.961 318.433 267.903 320.361 262.653C322.289 257.402 325.381 254.777 329.654 254.777C337.866 254.777 341.972 265.461 341.972 286.811C341.955 308.344 337.866 319.111 329.654 319.111Z" fill="white"/>
<path d="M327.776 157.778C327.044 156.531 325.698 155.717 324.268 155.717H305.25C302.258 155.717 299.515 157.395 298.069 160.004L199.771 337.122C199.073 338.385 199.09 339.963 199.821 341.209C200.553 342.455 201.899 343.253 203.329 343.253H224.774C226.253 343.253 227.616 342.422 228.348 341.126L327.826 161.848C328.524 160.602 328.507 159.024 327.776 157.778Z" fill="white"/>
<g opacity="0.3">
<path opacity="0.3" d="M189.531 171.153C183.363 151.049 183.646 120.51 213.735 75.3997C136.101 97.7471 78.4492 168.112 78.4492 252.285C78.4492 356.312 166.058 436.664 270.423 431.895C308.907 430.134 344.134 417.008 372.926 396.172C372.029 368.425 365.994 338.052 349.005 310.039C302.308 233.011 208.898 234.224 189.531 171.153Z" fill="url(#paint5_linear_68_3292)"/>
</g>
<path d="M394.57 148.772V149.337C389.35 142.558 380.007 133.137 374.405 127.688C374.305 127.438 374.123 127.206 374.023 126.957C370.897 119.829 366.692 112.119 361.189 104.41C355.72 96.6837 348.788 89.0906 340.692 82.079C339.728 81.1651 338.597 80.3676 337.566 79.5036C337.034 79.0882 336.503 78.6562 335.971 78.2409L335.189 77.6095C334.907 77.3935 334.624 77.2107 334.358 76.9947C333.244 76.1972 332.13 75.3831 331.017 74.5689L330.185 73.9541L329.304 73.3892C328.722 73.0071 328.141 72.6249 327.559 72.2428C325.265 70.6643 322.788 69.2853 320.377 67.8398C319.147 67.1419 317.85 66.4939 316.604 65.8293C315.989 65.497 315.357 65.1481 314.725 64.8324C314.077 64.5333 313.428 64.2177 312.78 63.9186C302.44 58.9506 291.152 55.3452 279.582 53.3679C278.136 53.1353 276.689 52.9193 275.227 52.6867C273.78 52.4873 272.301 52.371 270.854 52.2049L268.66 51.9723L266.466 51.856L264.271 51.723C263.54 51.6898 262.825 51.6234 262.077 51.6234C260.614 51.6234 259.151 51.6067 257.688 51.5901C257.323 51.5901 256.94 51.5735 256.608 51.5901L255.627 51.64L253.682 51.7397L251.737 51.8393C251.571 51.8393 251.454 51.8394 251.222 51.856L249.227 52.0055L246.567 52.1883L244.572 52.3378L244.239 52.3544H244.123C244.123 52.3544 243.425 52.3544 244.589 52.371L240.283 52.9692C239.568 53.0689 238.853 53.1353 238.155 53.2849L236.044 53.6836L233.933 54.0824L232.885 54.2818C232.536 54.3482 232.187 54.4479 231.855 54.531C230.475 54.8633 229.095 55.1956 227.732 55.5279C227.034 55.6775 226.369 55.8935 225.704 56.0928L223.692 56.691L221.681 57.2725L219.719 58.0036C218.406 58.4688 217.092 58.8842 215.829 59.3826C214.566 59.8977 213.286 60.3962 212.022 60.9279C201.998 65.1647 192.988 70.6477 185.324 76.9117L183.878 78.0581L182.515 79.2876C181.6 80.1018 180.669 80.8661 179.805 81.6968C179.772 81.73 179.738 81.7633 179.705 81.7965C178.026 83.458 176.314 85.0199 174.801 86.7312C174.402 87.1466 174.003 87.5786 173.621 87.994L173.022 88.6253L172.474 89.2899C171.742 90.1539 171.011 91.0346 170.279 91.8819C170.096 92.0979 169.914 92.2973 169.731 92.5133L169.232 93.1779C168.883 93.6265 168.55 94.0751 168.218 94.5071C167.57 95.4043 166.855 96.2185 166.256 97.1489C161.286 104.244 157.479 111.338 154.902 118.101C152.309 124.846 150.763 131.177 149.865 136.776C149.765 137.474 149.666 138.172 149.583 138.853C149.499 139.534 149.366 140.182 149.333 140.847C149.217 142.159 149.117 143.422 149.001 144.618C148.934 145.831 148.934 147.011 148.868 148.108C148.851 148.656 148.801 149.204 148.801 149.719C148.818 150.251 148.834 150.766 148.851 151.265C148.868 152.261 148.884 153.209 148.901 154.089C148.901 154.338 148.934 154.471 148.951 154.637C148.967 154.804 149.001 154.97 149.017 155.119C149.051 155.435 149.084 155.385 149.117 155.668C149.134 155.917 149.167 156.017 149.184 156.017H198.241L168.434 187.469L99.1454 259.596L0 156.017H52.1162C52.1827 156.017 52.2658 155.169 52.3489 154.505C52.5484 153.059 52.7645 151.663 52.9972 149.952C53.1302 149.105 53.2466 148.307 53.3962 147.393C53.4627 146.945 53.5458 146.529 53.6123 146.047C53.6788 145.582 53.7453 145.084 53.8451 144.685C54.2108 142.974 54.5931 141.163 54.9921 139.235C55.2082 138.271 55.4243 137.291 55.6404 136.294C55.8732 135.281 56.1558 134.267 56.4384 133.22C57.0036 131.127 57.5522 128.934 58.2338 126.674C58.9652 124.431 59.7299 122.088 60.5113 119.662C60.8936 118.45 61.3923 117.237 61.8578 116.007C62.3233 114.794 62.8054 113.531 63.3041 112.252C67.3437 102.15 72.8795 91.1342 80.2606 80.0852C87.6083 69.0194 96.9843 57.987 108.106 47.7686C109.452 46.456 110.948 45.2597 112.378 43.997C113.11 43.3822 113.824 42.7509 114.556 42.1361L115.67 41.2056L116.8 40.3084C118.329 39.1287 119.875 37.9324 121.405 36.7195L122.569 35.8223L123.782 34.9749C124.597 34.3934 125.395 33.8285 126.209 33.2636C129.384 30.9375 132.809 28.8606 136.217 26.7006C137.929 25.6538 139.708 24.6735 141.47 23.66C142.334 23.1616 143.232 22.6631 144.113 22.1646C145.028 21.6994 145.925 21.2342 146.84 20.7524C161.336 13.1925 177.361 7.46021 194.002 4.02087C196.08 3.63872 198.174 3.23996 200.269 2.8412C202.364 2.47566 204.475 2.20982 206.586 1.91075L209.745 1.47875L212.92 1.17968L216.095 0.897219C217.159 0.797528 218.206 0.697837 219.27 0.647992C221.381 0.548301 223.509 0.315689 225.637 0.215997C226.153 0.199382 226.701 0 227.216 0H228.812L231.988 0.166152L235.163 0.265843C236.227 0.265843 237.274 0.398764 238.338 0.44861L244.638 0.814144C246.068 0.830759 245.137 0.847374 245.503 0.863989L245.669 0.880605L246.002 0.913835L246.65 0.996911L247.98 1.14645L250.623 1.46214L251.953 1.61167L252.601 1.69475L253.416 1.79444L256.757 2.25966L260.099 2.7415L261.761 2.99073C262.31 3.07381 262.792 3.19011 263.307 3.28981C265.335 3.70518 267.38 4.12056 269.408 4.51933C270.422 4.71871 271.42 4.98455 272.417 5.23378L275.426 5.99808L278.402 6.76238L281.344 7.64298C283.289 8.24113 285.251 8.80604 287.179 9.47065C289.091 10.1519 291.003 10.8331 292.898 11.5143C307.976 17.2133 321.724 24.8231 333.56 33.679C334.308 34.2273 335.04 34.7756 335.788 35.3239C336.503 35.8888 337.217 36.4703 337.932 37.0518C339.345 38.1983 340.775 39.3115 342.138 40.4912C344.831 42.9004 347.508 45.1933 349.968 47.7022C350.6 48.3169 351.198 48.9317 351.83 49.5298L352.744 50.4437L353.625 51.3907C354.789 52.6535 355.953 53.9162 357.083 55.1458L357.947 56.0762L358.762 57.0399C359.294 57.6879 359.843 58.3193 360.358 58.9673C361.422 60.2466 362.519 61.4762 363.483 62.7887C368.886 69.7339 373.458 76.7621 377.248 83.7073C379.093 87.0801 380.739 90.4364 382.202 93.7428C386.69 103.861 389.583 113.482 391.395 122.055C391.594 123.135 391.81 124.182 392.01 125.229C392.209 126.259 392.442 127.272 392.559 128.286C392.841 130.313 393.124 132.24 393.39 134.101C393.606 135.979 393.739 137.773 393.888 139.484C393.955 140.332 394.038 141.163 394.105 141.993C394.138 142.807 394.321 143.588 394.354 144.369C394.321 145.931 394.57 147.41 394.57 148.772Z" fill="url(#paint6_linear_68_3292)"/>
<path opacity="0.4" d="M394.57 148.772V149.337C389.35 142.558 380.007 133.137 374.405 127.688C374.305 127.438 374.122 127.206 374.023 126.957C370.897 119.829 366.692 112.119 361.189 104.41C355.72 96.6837 348.788 89.0905 340.692 82.0789C339.727 81.1651 338.597 80.3676 337.566 79.5036C337.034 79.0882 336.502 78.6562 335.97 78.2408L335.189 77.6095C334.907 77.3935 334.624 77.2107 334.358 76.9947C333.244 76.1972 332.13 75.383 331.017 74.5689L330.185 73.9541L329.304 73.3892C328.722 73.007 328.141 72.6249 327.559 72.2428C325.265 70.6643 322.788 69.2852 320.377 67.8397C319.147 67.1419 317.85 66.4939 316.604 65.8293C315.988 65.497 315.357 65.1481 314.725 64.8324C314.077 64.5333 313.428 64.2176 312.78 63.9185C302.44 58.9506 291.152 55.3451 279.582 53.3679C278.136 53.1353 276.689 52.9193 275.226 52.6867C273.78 52.4873 272.301 52.371 270.854 52.2049L268.66 51.9722L266.466 51.8559L264.271 51.723C263.54 51.6898 262.825 51.6233 262.077 51.6233C260.614 51.6233 259.151 51.6067 257.688 51.5901C257.322 51.5901 256.94 51.5735 256.608 51.5901L255.627 51.6399L253.682 51.7396L251.737 51.8393C251.571 51.8393 251.454 51.8393 251.221 51.8559L249.227 52.0055L246.567 52.1882L244.572 52.3378L244.239 52.3544H244.123C244.123 52.3544 243.425 52.3544 244.588 52.371L240.283 52.9692C239.568 53.0688 238.853 53.1353 238.155 53.2848L236.044 53.6836L233.932 54.0824L232.885 54.2817C232.536 54.3482 232.187 54.4479 231.854 54.531C230.475 54.8633 229.095 55.1956 227.732 55.5279C227.034 55.6774 226.369 55.8934 225.704 56.0928L223.692 56.6909L221.681 57.2725L219.719 58.0035C218.406 58.4688 217.092 58.8841 215.829 59.3826C214.566 59.8977 213.285 60.3961 212.022 60.9278C201.998 65.1647 192.988 70.6477 185.324 76.9116L183.878 78.0581L182.515 79.2876C181.6 80.1017 180.669 80.866 179.805 81.6968C179.772 81.73 179.738 81.7632 179.705 81.7965C201.732 55.8436 237.39 38.9958 277.654 38.9958C318.898 38.9958 355.337 56.6909 377.198 83.7072C379.043 87.0801 380.689 90.4364 382.152 93.7428C386.64 103.861 389.533 113.482 391.345 122.055C391.544 123.135 391.761 124.182 391.96 125.229C392.16 126.259 392.392 127.272 392.509 128.286C392.791 130.313 393.074 132.24 393.34 134.101C393.556 135.979 393.689 137.773 393.839 139.484C393.905 140.332 393.988 141.162 394.055 141.993C394.088 142.807 394.271 143.588 394.304 144.369C394.321 145.931 394.57 147.41 394.57 148.772Z" fill="url(#paint7_linear_68_3292)"/>
<path d="M30.1055 446.865V462.002C30.1055 466.886 60.6936 470.858 98.4134 470.858C136.133 470.858 166.721 466.886 166.721 462.002V446.865H30.1055Z" fill="url(#paint8_linear_68_3292)"/>
<path d="M98.4134 455.721C136.139 455.721 166.721 451.756 166.721 446.865C166.721 441.974 136.139 438.009 98.4134 438.009C60.688 438.009 30.1055 441.974 30.1055 446.865C30.1055 451.756 60.688 455.721 98.4134 455.721Z" fill="url(#paint9_linear_68_3292)"/>
<path d="M98.4134 456.336C64.9992 456.336 30.0723 453.146 30.0723 446.998C30.0723 446.666 30.1886 446.068 30.5377 446.068C30.8702 446.068 30.7372 446.533 30.7372 446.865C30.7372 450.77 58.5325 455.106 98.4301 455.106C138.328 455.106 166.123 450.753 166.123 446.865C166.123 446.533 166.173 446.217 166.522 446.217C166.854 446.217 166.771 446.666 166.771 446.998C166.755 453.146 131.828 456.336 98.4134 456.336Z" fill="url(#paint10_linear_68_3292)"/>
<path d="M91.9634 447.364C92.6284 446.898 93.3432 446.45 94.1079 445.985C94.856 445.536 95.8534 445.121 97.0503 444.755C98.2473 444.39 99.7434 444.09 101.555 443.858C103.351 443.625 105.612 443.509 108.305 443.492C110.948 443.476 113.425 443.559 115.736 443.742C118.046 443.924 120.091 444.19 121.853 444.556C123.615 444.921 125.045 445.353 126.142 445.885C127.239 446.417 127.888 447.015 128.104 447.696L135.801 447.779C136.366 447.779 136.848 447.829 137.28 447.912C137.713 447.995 137.912 448.111 137.912 448.244V448.876L128.021 448.776C127.672 449.557 126.791 450.255 125.378 450.903C123.965 451.551 122.153 452.099 119.958 452.581L116.351 452.082C116.035 452.033 115.769 451.966 115.553 451.9C115.353 451.817 115.237 451.75 115.237 451.65C115.237 451.534 115.52 451.385 116.068 451.235C116.633 451.085 117.248 450.886 117.947 450.653C118.645 450.421 119.326 450.155 120.008 449.839C120.673 449.524 121.122 449.158 121.355 448.709L98.0145 448.477C97.3994 448.925 96.7179 449.374 95.9532 449.806C95.1885 450.238 94.191 450.637 92.9276 450.986C91.6642 451.335 90.1015 451.617 88.2396 451.833C86.3611 452.049 84.0005 452.165 81.1578 452.182C79.0133 452.199 76.9353 452.116 74.8906 451.933C72.8458 451.767 71.0338 451.501 69.4545 451.152C67.8753 450.803 66.5786 450.388 65.5645 449.873C64.5505 449.357 63.9852 448.776 63.8689 448.128L57.5351 448.062C56.9699 448.062 56.4878 448.012 56.039 447.929C55.6068 447.845 55.374 447.729 55.374 447.596V446.965L64.0351 447.048C64.4175 446.383 65.1988 445.802 66.3957 445.303C67.5927 444.805 69.0556 444.373 70.7845 443.974L73.677 444.373C74.5581 444.489 74.9903 444.639 74.9903 444.805C74.9903 444.888 74.8075 445.004 74.4417 445.137C74.076 445.27 73.6438 445.436 73.1451 445.619C72.6463 445.802 72.1642 446.018 71.6988 446.267C71.2333 446.516 70.8842 446.799 70.6515 447.114L91.9634 447.364ZM70.6016 448.211C70.7678 448.626 71.1668 448.975 71.7486 449.291C72.3305 449.59 73.0619 449.839 73.943 450.039C74.8241 450.238 75.8049 450.371 76.9021 450.471C77.9993 450.554 79.1629 450.604 80.3599 450.604C81.7563 450.604 82.9865 450.537 84.0338 450.421C85.0645 450.305 85.9788 450.155 86.7767 449.956C87.558 449.756 88.2563 449.54 88.8381 449.274C89.4199 449.009 89.9519 448.743 90.4174 448.427L70.6016 448.211ZM121.404 447.646C121.238 447.231 120.806 446.849 120.141 446.533C119.476 446.217 118.628 445.951 117.614 445.735C116.584 445.519 115.387 445.353 114.023 445.254C112.66 445.154 111.164 445.104 109.518 445.104C108.055 445.104 106.792 445.17 105.745 445.303C104.697 445.42 103.783 445.586 103.002 445.802C102.237 446.018 101.572 446.25 101.023 446.533C100.475 446.815 99.9762 447.114 99.5107 447.43L121.404 447.646Z" fill="#FCB048"/>
<path d="M98.4139 438.956C67.9588 438.956 36.2402 441.631 31.1699 446.815C31.3694 446.998 31.5523 447.197 31.7185 447.397C35.9909 443.791 62.1737 440.169 98.3973 440.169C135.552 440.169 162.15 443.991 165.375 447.679C165.542 447.48 165.708 447.281 165.891 447.098C161.718 441.731 129.418 438.956 98.4139 438.956Z" fill="url(#paint11_linear_68_3292)"/>
<path d="M11.1211 430.964V446.101C11.1211 450.986 41.7092 454.957 79.429 454.957C117.149 454.957 147.737 450.986 147.737 446.101V430.964H11.1211Z" fill="url(#paint12_linear_68_3292)"/>
<path d="M79.429 439.82C117.154 439.82 147.737 435.855 147.737 430.964C147.737 426.073 117.154 422.109 79.429 422.109C41.7036 422.109 11.1211 426.073 11.1211 430.964C11.1211 435.855 41.7036 439.82 79.429 439.82Z" fill="url(#paint13_linear_68_3292)"/>
<path d="M79.4291 440.435C46.0149 440.435 11.0879 437.245 11.0879 431.097C11.0879 430.765 11.2043 430.167 11.5534 430.167C11.8858 430.167 11.7528 430.632 11.7528 430.964C11.7528 434.869 39.5481 439.206 79.4457 439.206C119.343 439.206 147.139 434.852 147.139 430.964C147.139 430.632 147.188 430.316 147.538 430.316C147.87 430.316 147.787 430.765 147.787 431.097C147.77 437.245 112.827 440.435 79.4291 440.435Z" fill="url(#paint14_linear_68_3292)"/>
<path d="M72.9624 431.446C73.6274 430.981 74.3422 430.532 75.1069 430.067C75.855 429.619 76.8524 429.203 78.0494 428.838C79.2463 428.472 80.7424 428.173 82.5545 427.94C84.3498 427.708 86.6107 427.592 89.3038 427.575C91.947 427.558 94.424 427.641 96.7347 427.824C99.0454 428.007 101.09 428.273 102.852 428.638C104.614 429.004 106.044 429.436 107.141 429.968C108.239 430.499 108.887 431.097 109.103 431.779L116.8 431.862C117.365 431.862 117.847 431.912 118.279 431.995C118.712 432.078 118.911 432.194 118.911 432.327V432.958L109.02 432.859C108.671 433.64 107.79 434.337 106.377 434.985C104.964 435.633 103.152 436.182 100.957 436.663L97.3498 436.165C97.0339 436.115 96.768 436.049 96.5518 435.982C96.3357 435.899 96.236 435.833 96.236 435.733C96.236 435.617 96.5186 435.467 97.0672 435.318C97.6324 435.168 98.2475 434.969 98.9457 434.736C99.6439 434.503 100.325 434.238 101.007 433.922C101.672 433.606 102.121 433.241 102.354 432.792L79.0135 432.56C78.3985 433.008 77.7169 433.457 76.9522 433.889C76.1875 434.321 75.19 434.719 73.9266 435.068C72.6632 435.417 71.1005 435.7 69.2386 435.916C67.3601 436.132 64.9995 436.248 62.1568 436.265C60.0123 436.281 57.9343 436.198 55.8896 436.016C53.8448 435.849 52.0328 435.583 50.4536 435.235C48.8743 434.886 47.5776 434.47 46.5635 433.955C45.5495 433.44 44.9843 432.859 44.8679 432.211L38.5342 432.144C37.9689 432.144 37.4869 432.094 37.038 432.011C36.6058 431.928 36.373 431.812 36.373 431.679V431.048L45.0341 431.131C45.4165 430.466 46.1978 429.884 47.3947 429.386C48.5917 428.888 50.0546 428.456 51.7835 428.073L54.676 428.472C55.5571 428.588 55.9893 428.738 55.9893 428.904C55.9893 428.987 55.8065 429.104 55.4407 429.236C55.075 429.369 54.6428 429.536 54.1441 429.718C53.6454 429.901 53.1633 430.117 52.6978 430.366C52.2323 430.616 51.8832 430.898 51.6505 431.214L72.9624 431.446ZM51.6172 432.31C51.7835 432.726 52.1825 433.075 52.7643 433.39C53.3461 433.689 54.0776 433.939 54.9587 434.138C55.8397 434.337 56.8205 434.47 57.9177 434.57C59.0149 434.653 60.1786 434.703 61.3755 434.703C62.7719 434.703 64.0021 434.636 65.0494 434.52C66.0801 434.404 66.9944 434.254 67.7924 434.055C68.5737 433.856 69.2719 433.64 69.8537 433.374C70.4356 433.108 70.9675 432.842 71.433 432.526L51.6172 432.31ZM102.42 431.745C102.254 431.33 101.822 430.948 101.157 430.632C100.492 430.316 99.6439 430.051 98.6298 429.835C97.5992 429.619 96.4022 429.452 95.0391 429.353C93.6759 429.253 92.1797 429.203 90.534 429.203C89.0711 429.203 87.8076 429.27 86.7603 429.403C85.713 429.519 84.7987 429.685 84.0174 429.901C83.2527 430.117 82.5877 430.35 82.0391 430.632C81.4905 430.915 80.9918 431.214 80.5263 431.529L102.42 431.745Z" fill="#FCB048"/>
<path d="M79.4295 423.056C48.9744 423.056 17.2559 425.731 12.1855 430.915C12.385 431.097 12.5679 431.297 12.7341 431.496C17.0065 427.891 43.1893 424.268 79.4129 424.268C116.568 424.268 143.166 428.09 146.391 431.779C146.557 431.579 146.723 431.38 146.906 431.197C142.734 425.83 110.433 423.056 79.4295 423.056Z" fill="url(#paint15_linear_68_3292)"/>
<path d="M27.4961 415.097V430.233C27.4961 435.118 58.0842 439.089 95.804 439.089C133.524 439.089 164.112 435.118 164.112 430.233V415.097H27.4961Z" fill="url(#paint16_linear_68_3292)"/>
<path d="M95.804 423.953C133.529 423.953 164.112 419.988 164.112 415.097C164.112 410.206 133.529 406.241 95.804 406.241C58.0786 406.241 27.4961 410.206 27.4961 415.097C27.4961 419.988 58.0786 423.953 95.804 423.953Z" fill="url(#paint17_linear_68_3292)"/>
<path d="M95.8041 424.568C62.3899 424.568 27.4629 421.377 27.4629 415.23C27.4629 414.898 27.5793 414.299 27.9284 414.299C28.2608 414.299 28.1278 414.765 28.1278 415.097C28.1278 419.001 55.9232 423.338 95.8207 423.338C135.718 423.338 163.514 418.985 163.514 415.097C163.514 414.765 163.563 414.449 163.913 414.449C164.245 414.449 164.162 414.898 164.162 415.23C164.145 421.377 129.218 424.568 95.8041 424.568Z" fill="url(#paint18_linear_68_3292)"/>
<path d="M89.354 415.595C90.019 415.13 90.7338 414.682 91.4985 414.216C92.2466 413.768 93.244 413.352 94.441 412.987C95.6379 412.621 97.134 412.322 98.9461 412.09C100.741 411.857 103.002 411.741 105.695 411.724C108.339 411.707 110.816 411.791 113.126 411.973C115.437 412.156 117.482 412.422 119.244 412.787C121.006 413.153 122.436 413.585 123.533 414.117C124.63 414.648 125.278 415.247 125.495 415.928L133.191 416.011C133.757 416.011 134.239 416.061 134.671 416.144C135.103 416.227 135.303 416.343 135.303 416.476V417.107L125.411 417.008C125.062 417.789 124.181 418.486 122.768 419.134C121.355 419.782 119.543 420.331 117.349 420.813L113.741 420.314C113.426 420.264 113.16 420.198 112.943 420.131C112.727 420.048 112.628 419.982 112.628 419.882C112.628 419.766 112.91 419.616 113.459 419.467C114.024 419.317 114.639 419.118 115.337 418.885C116.035 418.653 116.717 418.387 117.399 418.071C118.064 417.755 118.512 417.39 118.745 416.941L95.4051 416.709C94.7901 417.157 94.1085 417.606 93.3438 418.038C92.5791 418.47 91.5816 418.869 90.3182 419.218C89.0548 419.566 87.4921 419.849 85.6303 420.065C83.7517 420.281 81.3911 420.397 78.5484 420.414C76.4039 420.43 74.3259 420.347 72.2812 420.165C70.2364 419.998 68.4244 419.733 66.8452 419.384C65.2659 419.035 63.9692 418.619 62.9551 418.104C61.9411 417.589 61.3759 417.008 61.2595 416.36L54.9258 416.293C54.3606 416.293 53.8785 416.243 53.4296 416.16C52.9974 416.077 52.7646 415.961 52.7646 415.828V415.197L61.4257 415.28C61.8081 414.615 62.5894 414.034 63.7863 413.535C64.9833 413.037 66.4462 412.605 68.1751 412.223L71.0676 412.621C71.9487 412.738 72.3809 412.887 72.3809 413.053C72.3809 413.136 72.1981 413.253 71.8323 413.386C71.4666 413.519 71.0344 413.685 70.5357 413.867C70.037 414.05 69.5549 414.266 69.0894 414.515C68.6239 414.765 68.2748 415.047 68.0421 415.363L89.354 415.595ZM67.9922 416.459C68.1584 416.875 68.5574 417.224 69.1393 417.539C69.7211 417.838 70.4526 418.088 71.3336 418.287C72.2147 418.486 73.1955 418.619 74.2927 418.719C75.3899 418.802 76.5536 418.852 77.7505 418.852C79.1469 418.852 80.3771 418.786 81.4244 418.669C82.4551 418.553 83.3694 418.403 84.1673 418.204C84.9487 418.005 85.6469 417.789 86.2287 417.523C86.8106 417.257 87.3425 416.991 87.808 416.675L67.9922 416.459ZM118.795 415.895C118.629 415.479 118.197 415.097 117.532 414.781C116.867 414.466 116.019 414.2 115.005 413.984C113.974 413.768 112.777 413.602 111.414 413.502C110.051 413.402 108.555 413.352 106.909 413.352C105.446 413.352 104.183 413.419 103.135 413.552C102.088 413.668 101.174 413.834 100.392 414.05C99.6276 414.266 98.9627 414.499 98.4141 414.781C97.8655 415.064 97.3668 415.363 96.9013 415.678L118.795 415.895Z" fill="#FCB048"/>
<path d="M95.8212 407.205C65.366 407.205 33.6475 409.88 28.5771 415.064C28.7766 415.246 28.9595 415.446 29.1257 415.645C33.3981 412.04 59.5809 408.418 95.8045 408.418C132.959 408.418 159.558 412.239 162.783 415.928C162.949 415.728 163.115 415.529 163.298 415.346C159.125 409.979 126.808 407.205 95.8212 407.205Z" fill="url(#paint19_linear_68_3292)"/>
<path d="M37.4531 399.196V414.333C37.4531 419.218 68.0412 423.189 105.761 423.189C143.481 423.189 174.069 419.218 174.069 414.333V399.196H37.4531Z" fill="url(#paint20_linear_68_3292)"/>
<path d="M105.744 408.052C143.47 408.052 174.052 404.087 174.052 399.196C174.052 394.305 143.47 390.34 105.744 390.34C68.019 390.34 37.4365 394.305 37.4365 399.196C37.4365 404.087 68.019 408.052 105.744 408.052Z" fill="url(#paint21_linear_68_3292)"/>
<path d="M105.745 408.667C72.3303 408.667 37.4033 405.477 37.4033 399.329C37.4033 398.997 37.5197 398.399 37.8688 398.399C38.2013 398.399 38.0683 398.864 38.0683 399.196C38.0683 403.101 65.8636 407.437 105.761 407.437C145.659 407.437 173.454 403.084 173.454 399.196C173.454 398.864 173.504 398.548 173.853 398.548C174.185 398.548 174.102 398.997 174.102 399.329C174.102 405.477 139.159 408.667 105.745 408.667Z" fill="url(#paint22_linear_68_3292)"/>
<path d="M99.2944 399.695C99.9594 399.229 100.674 398.781 101.439 398.316C102.187 397.867 103.184 397.452 104.381 397.086C105.578 396.721 107.074 396.421 108.886 396.189C110.682 395.956 112.943 395.84 115.636 395.823C118.279 395.807 120.756 395.89 123.067 396.073C125.377 396.255 127.422 396.521 129.184 396.887C130.946 397.252 132.376 397.684 133.473 398.216C134.571 398.748 135.219 399.346 135.435 400.027L143.132 400.11C143.697 400.11 144.179 400.16 144.611 400.243C145.044 400.326 145.243 400.442 145.243 400.575V401.207L135.352 401.107C135.003 401.888 134.122 402.586 132.709 403.234C131.296 403.882 129.484 404.43 127.289 404.912L123.682 404.413C123.366 404.364 123.1 404.297 122.884 404.231C122.684 404.148 122.568 404.081 122.568 403.981C122.568 403.865 122.851 403.716 123.399 403.566C123.964 403.417 124.58 403.217 125.278 402.985C125.976 402.752 126.657 402.486 127.339 402.17C128.004 401.855 128.453 401.489 128.686 401.041L105.346 400.808C104.73 401.257 104.049 401.705 103.284 402.137C102.519 402.569 101.522 402.968 100.259 403.317C98.9952 403.666 97.4326 403.948 95.5707 404.164C93.6922 404.38 91.3316 404.497 88.4889 404.513C86.3444 404.53 84.2664 404.447 82.2216 404.264C80.1769 404.098 78.3649 403.832 76.7856 403.483C75.2063 403.134 73.9096 402.719 72.8956 402.204C71.8815 401.689 71.3163 401.107 71.1999 400.459L64.8662 400.393C64.301 400.393 63.8189 400.343 63.37 400.26C62.9378 400.177 62.7051 400.06 62.7051 399.927V399.296L71.3662 399.379C71.7485 398.714 72.5298 398.133 73.7268 397.634C74.9237 397.136 76.3866 396.704 78.1155 396.322L81.0081 396.721C81.8891 396.837 82.3214 396.986 82.3214 397.153C82.3214 397.236 82.1385 397.352 81.7728 397.485C81.407 397.618 80.9748 397.784 80.4761 397.967C79.9774 398.149 79.4953 398.365 79.0298 398.615C78.5643 398.864 78.2152 399.146 77.9825 399.462L99.2944 399.695ZM77.9326 400.542C78.0989 400.957 78.4979 401.306 79.0797 401.622C79.6615 401.921 80.393 402.17 81.2741 402.37C82.1551 402.569 83.1359 402.702 84.2331 402.802C85.3303 402.885 86.494 402.935 87.6909 402.935C89.0873 402.935 90.3175 402.868 91.3648 402.752C92.3955 402.636 93.3098 402.486 94.1078 402.287C94.8891 402.087 95.5873 401.871 96.1691 401.605C96.751 401.34 97.2829 401.074 97.7484 400.758L77.9326 400.542ZM128.735 399.977C128.569 399.562 128.137 399.18 127.472 398.864C126.807 398.548 125.959 398.282 124.945 398.066C123.915 397.85 122.718 397.684 121.354 397.585C119.991 397.485 118.495 397.435 116.849 397.435C115.386 397.435 114.123 397.501 113.076 397.634C112.028 397.751 111.114 397.917 110.333 398.133C109.568 398.349 108.903 398.581 108.354 398.864C107.806 399.146 107.307 399.445 106.842 399.761L128.735 399.977Z" fill="#FCB048"/>
<path d="M105.762 391.287C75.3064 391.287 43.5879 393.962 38.5176 399.146C38.7171 399.329 38.8999 399.529 39.0662 399.728C43.3385 396.122 69.5213 392.5 105.745 392.5C142.9 392.5 169.498 396.322 172.723 400.01C172.889 399.811 173.055 399.612 173.238 399.429C169.066 394.062 136.749 391.287 105.762 391.287Z" fill="url(#paint23_linear_68_3292)"/>
<path d="M30.1055 382.033V397.169C30.1055 402.054 60.6936 406.025 98.4134 406.025C136.133 406.025 166.721 402.054 166.721 397.169V382.033H30.1055Z" fill="url(#paint24_linear_68_3292)"/>
<path d="M98.4134 390.889C136.139 390.889 166.721 386.924 166.721 382.033C166.721 377.142 136.139 373.177 98.4134 373.177C60.688 373.177 30.1055 377.142 30.1055 382.033C30.1055 386.924 60.688 390.889 98.4134 390.889Z" fill="url(#paint25_linear_68_3292)"/>
<path d="M98.4134 391.503C64.9992 391.503 30.0723 388.313 30.0723 382.166C30.0723 381.833 30.1886 381.235 30.5377 381.235C30.8702 381.235 30.7372 381.7 30.7372 382.033C30.7372 385.937 58.5325 390.274 98.4301 390.274C138.328 390.274 166.123 385.921 166.123 382.033C166.123 381.7 166.173 381.385 166.522 381.385C166.854 381.385 166.771 381.833 166.771 382.166C166.755 388.313 131.828 391.503 98.4134 391.503Z" fill="url(#paint26_linear_68_3292)"/>
<path d="M91.9634 382.531C92.6283 382.066 93.3432 381.617 94.1079 381.152C94.856 380.704 95.8534 380.288 97.0503 379.923C98.2472 379.557 99.7434 379.258 101.555 379.025C103.351 378.793 105.612 378.676 108.305 378.66C110.948 378.643 113.425 378.726 115.736 378.909C118.046 379.092 120.091 379.358 121.853 379.723C123.615 380.089 125.045 380.521 126.142 381.052C127.239 381.584 127.888 382.182 128.104 382.864L135.801 382.947C136.366 382.947 136.848 382.996 137.28 383.08C137.713 383.163 137.912 383.279 137.912 383.412V384.043L128.021 383.944C127.672 384.724 126.791 385.422 125.378 386.07C123.965 386.718 122.153 387.267 119.958 387.748L116.351 387.25C116.035 387.2 115.769 387.134 115.553 387.067C115.353 386.984 115.237 386.918 115.237 386.818C115.237 386.702 115.52 386.552 116.068 386.403C116.633 386.253 117.248 386.054 117.947 385.821C118.645 385.588 119.326 385.323 120.008 385.007C120.673 384.691 121.122 384.326 121.355 383.877L98.0311 383.661C97.416 384.11 96.7345 384.558 95.9698 384.99C95.205 385.422 94.2076 385.821 92.9442 386.17C91.6808 386.519 90.1181 386.801 88.2562 387.017C86.3777 387.233 84.0171 387.35 81.1744 387.366C79.0299 387.383 76.9519 387.3 74.9072 387.117C72.8624 386.951 71.0504 386.685 69.4711 386.336C67.8919 385.987 66.5952 385.572 65.5811 385.057C64.5671 384.542 64.0018 383.96 63.8855 383.312L57.5517 383.246C56.9865 383.246 56.5044 383.196 56.0556 383.113C55.6234 383.03 55.3906 382.913 55.3906 382.78V382.149L64.0517 382.232C64.4341 381.568 65.2154 380.986 66.4123 380.488C67.6092 379.989 69.0722 379.557 70.8011 379.175L73.6936 379.574C74.5747 379.69 75.0069 379.84 75.0069 380.006C75.0069 380.089 74.8241 380.205 74.4583 380.338C74.0926 380.471 73.6604 380.637 73.1617 380.82C72.6629 381.003 72.1808 381.219 71.7154 381.468C71.2499 381.717 70.9008 382 70.6681 382.315L91.9634 382.531ZM70.6016 383.395C70.7678 383.811 71.1668 384.159 71.7486 384.475C72.3305 384.774 73.0619 385.023 73.943 385.223C74.8241 385.422 75.8049 385.555 76.9021 385.655C77.9992 385.738 79.1629 385.788 80.3598 385.788C81.7563 385.788 82.9864 385.721 84.0337 385.605C85.0644 385.489 85.9787 385.339 86.7767 385.14C87.558 384.94 88.2562 384.724 88.8381 384.459C89.4199 384.193 89.9519 383.927 90.4174 383.611L70.6016 383.395ZM121.404 382.83C121.238 382.415 120.806 382.033 120.141 381.717C119.476 381.401 118.628 381.136 117.614 380.92C116.583 380.704 115.387 380.537 114.023 380.438C112.66 380.338 111.164 380.288 109.518 380.288C108.055 380.288 106.792 380.355 105.745 380.488C104.697 380.604 103.783 380.77 103.002 380.986C102.237 381.202 101.572 381.435 101.023 381.717C100.475 382 99.9761 382.299 99.5107 382.614L121.404 382.83Z" fill="#FCB048"/>
<path d="M98.4139 374.141C67.9588 374.141 36.2402 376.816 31.1699 382C31.3694 382.182 31.5523 382.382 31.7185 382.581C35.9909 378.976 62.1737 375.353 98.3973 375.353C135.552 375.353 162.15 379.175 165.375 382.863C165.542 382.664 165.708 382.465 165.891 382.282C161.718 376.915 129.418 374.141 98.4139 374.141Z" fill="url(#paint27_linear_68_3292)"/>
<path d="M11.1211 366.132V381.268C11.1211 386.153 41.7092 390.124 79.429 390.124C117.149 390.124 147.737 386.153 147.737 381.268V366.132H11.1211Z" fill="url(#paint28_linear_68_3292)"/>
<path d="M79.429 374.988C117.154 374.988 147.737 371.023 147.737 366.132C147.737 361.241 117.154 357.276 79.429 357.276C41.7036 357.276 11.1211 361.241 11.1211 366.132C11.1211 371.023 41.7036 374.988 79.429 374.988Z" fill="url(#paint29_linear_68_3292)"/>
<path d="M79.4291 375.603C46.0149 375.603 11.0879 372.413 11.0879 366.265C11.0879 365.933 11.2043 365.334 11.5534 365.334C11.8858 365.334 11.7528 365.8 11.7528 366.132C11.7528 370.037 39.5481 374.373 79.4457 374.373C119.343 374.373 147.139 370.02 147.139 366.132C147.139 365.8 147.188 365.484 147.538 365.484C147.87 365.484 147.787 365.933 147.787 366.265C147.77 372.413 112.827 375.603 79.4291 375.603Z" fill="url(#paint30_linear_68_3292)"/>
<path d="M72.9624 366.614C73.6274 366.149 74.3422 365.7 75.1069 365.235C75.855 364.786 76.8524 364.371 78.0494 364.005C79.2463 363.64 80.7424 363.341 82.5545 363.108C84.3498 362.875 86.6107 362.759 89.3038 362.743C91.947 362.726 94.424 362.809 96.7347 362.992C99.0454 363.175 101.09 363.44 102.852 363.806C104.614 364.171 106.044 364.603 107.141 365.135C108.239 365.667 108.887 366.265 109.103 366.946L116.8 367.029C117.365 367.029 117.847 367.079 118.279 367.162C118.712 367.245 118.911 367.362 118.911 367.495V368.126L109.02 368.026C108.671 368.807 107.79 369.505 106.377 370.153C104.964 370.801 103.152 371.349 100.957 371.831L97.3498 371.333C97.0339 371.283 96.768 371.216 96.5518 371.15C96.3357 371.067 96.236 371 96.236 370.901C96.236 370.784 96.5186 370.635 97.0672 370.485C97.6324 370.336 98.2475 370.136 98.9457 369.904C99.6439 369.671 100.325 369.405 101.007 369.09C101.672 368.774 102.121 368.408 102.354 367.96L79.0135 367.727C78.3985 368.176 77.7169 368.624 76.9522 369.056C76.1875 369.488 75.19 369.887 73.9266 370.236C72.6632 370.585 71.1005 370.867 69.2386 371.083C67.3601 371.299 64.9995 371.416 62.1568 371.432C60.0123 371.449 57.9343 371.366 55.8896 371.183C53.8448 371.017 52.0328 370.751 50.4536 370.402C48.8743 370.053 47.5776 369.638 46.5635 369.123C45.5495 368.608 44.9843 368.026 44.8679 367.378L38.5342 367.312C37.9689 367.312 37.4869 367.262 37.038 367.179C36.6058 367.096 36.373 366.979 36.373 366.847V366.215L45.0341 366.298C45.4165 365.634 46.1978 365.052 47.3947 364.554C48.5917 364.055 50.0546 363.623 51.7835 363.241L54.676 363.64C55.5571 363.756 55.9893 363.906 55.9893 364.072C55.9893 364.155 55.8065 364.271 55.4407 364.404C55.075 364.537 54.6428 364.703 54.1441 364.886C53.6454 365.069 53.1633 365.285 52.6978 365.534C52.2323 365.783 51.8832 366.066 51.6505 366.381L72.9624 366.614ZM51.6172 367.478C51.7835 367.893 52.1825 368.242 52.7643 368.558C53.3461 368.857 54.0776 369.106 54.9587 369.306C55.8397 369.505 56.8205 369.638 57.9177 369.738C59.0149 369.821 60.1786 369.87 61.3755 369.87C62.7719 369.87 64.0021 369.804 65.0494 369.688C66.0801 369.571 66.9944 369.422 67.7924 369.223C68.5737 369.023 69.2719 368.807 69.8537 368.541C70.4356 368.275 70.9675 368.01 71.433 367.694L51.6172 367.478ZM102.42 366.913C102.254 366.498 101.822 366.132 101.157 365.8C100.492 365.484 99.6439 365.218 98.6298 365.002C97.5992 364.786 96.4022 364.62 95.0391 364.52C93.6759 364.421 92.1797 364.371 90.534 364.371C89.0711 364.371 87.8076 364.437 86.7603 364.57C85.713 364.687 84.7987 364.853 84.0174 365.069C83.2527 365.285 82.5877 365.517 82.0391 365.8C81.4905 366.082 80.9918 366.381 80.5263 366.697L102.42 366.913Z" fill="#FCB048"/>
<path d="M79.4295 358.223C48.9744 358.223 17.2559 360.898 12.1855 366.082C12.385 366.265 12.5679 366.464 12.7341 366.664C17.0065 363.058 43.1893 359.436 79.4129 359.436C116.568 359.436 143.166 363.258 146.391 366.946C146.557 366.747 146.723 366.547 146.906 366.365C142.734 360.998 110.433 358.223 79.4295 358.223Z" fill="url(#paint31_linear_68_3292)"/>
<path d="M27.4961 350.264V365.401C27.4961 370.286 58.0842 374.257 95.804 374.257C133.524 374.257 164.112 370.286 164.112 365.401V350.264H27.4961Z" fill="url(#paint32_linear_68_3292)"/>
<path d="M95.804 359.12C133.529 359.12 164.112 355.155 164.112 350.265C164.112 345.374 133.529 341.409 95.804 341.409C58.0786 341.409 27.4961 345.374 27.4961 350.265C27.4961 355.155 58.0786 359.12 95.804 359.12Z" fill="url(#paint33_linear_68_3292)"/>
<path d="M95.8041 359.735C62.3899 359.735 27.4629 356.545 27.4629 350.397C27.4629 350.065 27.5793 349.467 27.9284 349.467C28.2608 349.467 28.1278 349.932 28.1278 350.265C28.1278 354.169 55.9232 358.506 95.8207 358.506C135.718 358.506 163.514 354.152 163.514 350.265C163.514 349.932 163.563 349.617 163.913 349.617C164.245 349.617 164.162 350.065 164.162 350.397C164.145 356.562 129.218 359.735 95.8041 359.735Z" fill="url(#paint34_linear_68_3292)"/>
<path d="M89.354 350.763C90.019 350.298 90.7338 349.849 91.4985 349.384C92.2466 348.935 93.244 348.52 94.441 348.154C95.6379 347.789 97.134 347.49 98.9461 347.257C100.741 347.025 103.002 346.908 105.695 346.892C108.339 346.875 110.816 346.958 113.126 347.141C115.437 347.324 117.482 347.59 119.244 347.955C121.006 348.321 122.436 348.753 123.533 349.284C124.63 349.816 125.278 350.414 125.495 351.095L133.191 351.178C133.757 351.178 134.239 351.228 134.671 351.311C135.103 351.394 135.303 351.511 135.303 351.644V352.275L125.411 352.175C125.062 352.956 124.181 353.654 122.768 354.302C121.355 354.95 119.543 355.498 117.349 355.98L113.741 355.482C113.426 355.432 113.16 355.365 112.943 355.299C112.727 355.216 112.628 355.149 112.628 355.05C112.628 354.933 112.91 354.784 113.459 354.634C114.024 354.485 114.639 354.285 115.337 354.053C116.035 353.82 116.717 353.554 117.399 353.239C118.064 352.923 118.512 352.557 118.745 352.109L95.4051 351.876C94.7901 352.325 94.1085 352.773 93.3438 353.205C92.5791 353.637 91.5816 354.036 90.3182 354.385C89.0548 354.734 87.4921 355.017 85.6303 355.233C83.7517 355.448 81.3911 355.565 78.5484 355.581C76.4039 355.598 74.3259 355.515 72.2812 355.332C70.2364 355.166 68.4244 354.9 66.8452 354.551C65.2659 354.202 63.9692 353.787 62.9551 353.272C61.9411 352.757 61.3759 352.175 61.2595 351.527L54.9258 351.461C54.3606 351.461 53.8785 351.411 53.4296 351.328C52.9974 351.245 52.7646 351.129 52.7646 350.996V350.364L61.4257 350.447C61.8081 349.783 62.5894 349.201 63.7863 348.703C64.9833 348.204 66.4462 347.772 68.1751 347.374L71.0676 347.772C71.9487 347.889 72.3809 348.038 72.3809 348.204C72.3809 348.287 72.1981 348.404 71.8323 348.537C71.4666 348.669 71.0344 348.836 70.5357 349.018C70.037 349.201 69.5549 349.417 69.0894 349.666C68.6239 349.916 68.2748 350.198 68.0421 350.514L89.354 350.763ZM67.9922 351.627C68.1584 352.042 68.5574 352.391 69.1393 352.707C69.7211 353.006 70.4526 353.255 71.3336 353.455C72.2147 353.654 73.1955 353.787 74.2927 353.887C75.3899 353.97 76.5536 354.02 77.7505 354.02C79.1469 354.02 80.3771 353.953 81.4244 353.837C82.4551 353.721 83.3694 353.571 84.1673 353.372C84.9487 353.172 85.6469 352.956 86.2287 352.69C86.8106 352.425 87.3425 352.159 87.808 351.843L67.9922 351.627ZM118.795 351.062C118.629 350.647 118.197 350.265 117.532 349.949C116.867 349.633 116.019 349.367 115.005 349.151C113.974 348.935 112.777 348.769 111.414 348.669C110.051 348.57 108.555 348.52 106.909 348.52C105.446 348.52 104.183 348.586 103.135 348.719C102.088 348.836 101.174 349.002 100.392 349.218C99.6276 349.434 98.9627 349.666 98.4141 349.949C97.8655 350.231 97.3668 350.53 96.9013 350.846L118.795 351.062Z" fill="#FCB048"/>
<path d="M95.8212 342.372C65.366 342.372 33.6475 345.047 28.5771 350.231C28.7766 350.414 28.9595 350.613 29.1257 350.813C33.3981 347.207 59.5809 343.585 95.8045 343.585C132.959 343.585 159.558 347.407 162.783 351.095C162.949 350.896 163.115 350.696 163.298 350.514C159.125 345.147 126.808 342.372 95.8212 342.372Z" fill="url(#paint35_linear_68_3292)"/>
<path d="M18.9844 334.364V349.5C18.9844 354.385 49.5725 358.356 87.2923 358.356C125.012 358.356 155.6 354.385 155.6 349.5V334.364H18.9844Z" fill="url(#paint36_linear_68_3292)"/>
<path d="M87.2923 343.22C125.018 343.22 155.6 339.255 155.6 334.364C155.6 329.473 125.018 325.508 87.2923 325.508C49.5669 325.508 18.9844 329.473 18.9844 334.364C18.9844 339.255 49.5669 343.22 87.2923 343.22Z" fill="url(#paint37_linear_68_3292)"/>
<path d="M87.2924 343.834C53.8782 343.834 18.9512 340.644 18.9512 334.497C18.9512 334.164 19.0675 333.566 19.4166 333.566C19.7491 333.566 19.6161 334.032 19.6161 334.364C19.6161 338.268 47.4114 342.605 87.309 342.605C127.207 342.605 155.002 338.252 155.002 334.364C155.002 334.032 155.052 333.716 155.401 333.716C155.733 333.716 155.65 334.164 155.65 334.497C155.634 340.644 120.69 343.834 87.2924 343.834Z" fill="url(#paint38_linear_68_3292)"/>
<path d="M80.8267 334.862C81.4916 334.397 82.2065 333.948 82.9712 333.483C83.7193 333.035 84.7167 332.619 85.9136 332.254C87.1105 331.888 88.6067 331.589 90.4187 331.356C92.2141 331.124 94.475 331.008 97.1681 330.991C99.8113 330.974 102.288 331.057 104.599 331.24C106.91 331.423 108.954 331.689 110.717 332.054C112.479 332.42 113.908 332.852 115.006 333.384C116.103 333.915 116.751 334.513 116.967 335.195L124.664 335.278C125.229 335.278 125.711 335.328 126.144 335.411C126.576 335.494 126.775 335.61 126.775 335.743V336.374L116.884 336.275C116.535 337.056 115.654 337.753 114.241 338.401C112.828 339.049 111.016 339.598 108.821 340.079L105.214 339.581C104.898 339.531 104.632 339.465 104.416 339.398C104.2 339.315 104.1 339.232 104.1 339.149C104.1 339.033 104.383 338.883 104.931 338.734C105.497 338.584 106.112 338.385 106.81 338.152C107.508 337.92 108.19 337.654 108.871 337.338C109.536 337.022 109.985 336.657 110.218 336.208L86.8778 335.976C86.2627 336.424 85.5811 336.873 84.8164 337.305C84.0517 337.737 83.0543 338.136 81.7909 338.484C80.5275 338.833 78.9648 339.116 77.1029 339.332C75.2244 339.548 72.8638 339.664 70.0211 339.681C67.8766 339.697 65.7986 339.614 63.7539 339.432C61.7091 339.265 59.8971 339 58.3178 338.651C56.7385 338.302 55.4419 337.886 54.4278 337.371C53.4137 336.856 52.8485 336.275 52.7322 335.627L46.3984 335.56C45.8332 335.56 45.3511 335.51 44.9023 335.427C44.47 335.344 44.2373 335.228 44.2373 335.095V334.464L52.8984 334.547C53.2808 333.882 54.0621 333.3 55.259 332.802C56.4559 332.304 57.9188 331.872 59.6477 331.473L62.5403 331.872C63.4214 331.988 63.8536 332.137 63.8536 332.304C63.8536 332.387 63.6707 332.503 63.305 332.636C62.9393 332.769 62.5071 332.935 62.0083 333.118C61.5096 333.3 61.0275 333.516 60.5621 333.766C60.0966 334.015 59.7475 334.297 59.5147 334.613L80.8267 334.862ZM59.4815 335.726C59.6477 336.142 60.0467 336.491 60.6285 336.806C61.2104 337.105 61.9418 337.355 62.8229 337.554C63.704 337.753 64.6848 337.886 65.782 337.986C66.8792 338.069 68.0428 338.119 69.2398 338.119C70.6362 338.119 71.8664 338.052 72.9137 337.936C73.9444 337.82 74.8587 337.67 75.6566 337.471C76.438 337.272 77.1362 337.056 77.718 336.79C78.2998 336.524 78.8318 336.258 79.2973 335.942L59.4815 335.726ZM110.284 335.161C110.118 334.746 109.686 334.364 109.021 334.048C108.356 333.732 107.508 333.467 106.494 333.251C105.463 333.035 104.266 332.868 102.903 332.769C101.54 332.669 100.044 332.619 98.3982 332.619C96.9353 332.619 95.6719 332.686 94.6246 332.819C93.5773 332.935 92.663 333.101 91.8816 333.317C91.1169 333.533 90.452 333.766 89.9034 334.048C89.3548 334.331 88.8561 334.63 88.3906 334.945L110.284 335.161Z" fill="#FCB048"/>
<path d="M87.2928 326.472C56.8377 326.472 25.1191 329.147 20.0488 334.331C20.2483 334.513 20.4312 334.713 20.5974 334.912C24.8698 331.307 51.0526 327.684 87.2762 327.684C124.431 327.684 151.029 331.506 154.254 335.195C154.42 334.995 154.587 334.796 154.77 334.613C150.597 329.246 118.297 326.472 87.2928 326.472Z" fill="url(#paint39_linear_68_3292)"/>
<path d="M175.017 345.047L162.665 353.82C158.676 356.661 173.172 383.86 195.032 414.582C216.893 445.303 237.856 467.917 241.845 465.075L254.197 456.303L175.017 345.047Z" fill="url(#paint40_linear_68_3292)"/>
<path d="M254.197 456.303C250.207 459.144 229.244 436.531 207.384 405.809C185.523 375.088 171.027 347.872 175.017 345.047C179.007 342.206 199.97 364.819 221.83 395.541C243.707 426.262 258.187 453.461 254.197 456.303Z" fill="url(#paint41_linear_68_3292)"/>
<path d="M206.885 406.158C187.518 378.942 169.864 348.653 174.884 345.081C175.167 344.881 175.715 344.632 175.915 344.914C176.114 345.197 175.649 345.346 175.366 345.529C172.191 347.789 184.759 372.944 207.883 405.444C231.007 437.926 250.656 458.064 253.848 455.788C254.131 455.588 254.413 455.455 254.613 455.738C254.812 456.02 254.397 456.203 254.114 456.402C249.094 459.975 226.252 433.374 206.885 406.158Z" fill="url(#paint42_linear_68_3292)"/>
<path d="M210.459 395.707C211.224 395.989 212.005 396.305 212.82 396.654C213.618 397.003 214.532 397.568 215.513 398.332C216.51 399.097 217.624 400.143 218.854 401.489C220.084 402.818 221.497 404.596 223.06 406.773C224.606 408.916 225.969 410.976 227.166 412.97C228.363 414.964 229.327 416.775 230.042 418.42C230.774 420.065 231.239 421.477 231.439 422.69C231.638 423.886 231.522 424.767 231.089 425.348L235.478 431.662C235.794 432.111 236.043 432.543 236.226 432.942C236.409 433.34 236.442 433.573 236.326 433.656L235.811 434.022L230.158 425.913C229.327 426.08 228.23 425.764 226.884 424.983C225.537 424.202 224.041 423.056 222.378 421.544L220.699 418.32C220.55 418.021 220.45 417.772 220.4 417.556C220.334 417.34 220.35 417.207 220.417 417.157C220.517 417.091 220.783 417.24 221.248 417.589C221.697 417.955 222.229 418.353 222.811 418.785C223.409 419.217 224.024 419.616 224.673 419.998C225.321 420.364 225.886 420.513 226.368 420.447L213.036 401.306C212.321 401.074 211.556 400.758 210.758 400.392C209.96 400.027 209.063 399.429 208.049 398.615C207.035 397.801 205.904 396.687 204.641 395.275C203.377 393.863 201.914 392.018 200.252 389.709C199.005 387.981 197.858 386.236 196.827 384.475C195.78 382.714 194.949 381.086 194.317 379.607C193.685 378.112 193.27 376.816 193.104 375.686C192.937 374.573 193.07 373.775 193.552 373.293L189.928 368.093C189.613 367.644 189.363 367.212 189.164 366.797C188.981 366.398 188.948 366.149 189.064 366.066L189.579 365.7L194.533 372.795C195.298 372.728 196.229 373.027 197.326 373.709C198.423 374.406 199.637 375.337 200.95 376.516L202.313 379.108C202.729 379.889 202.862 380.338 202.729 380.438C202.662 380.488 202.463 380.404 202.147 380.188C201.831 379.956 201.449 379.707 201 379.408C200.568 379.108 200.102 378.843 199.637 378.61C199.155 378.377 198.723 378.244 198.34 378.244L210.459 395.707ZM197.376 378.809C197.143 379.192 197.077 379.707 197.16 380.371C197.26 381.019 197.476 381.767 197.825 382.598C198.174 383.428 198.639 384.309 199.188 385.256C199.753 386.203 200.385 387.167 201.083 388.147C201.898 389.277 202.662 390.241 203.361 391.038C204.059 391.819 204.707 392.467 205.322 392.999C205.937 393.53 206.519 393.962 207.068 394.278C207.616 394.61 208.148 394.86 208.664 395.076L197.376 378.809ZM227.299 419.849C227.549 419.467 227.598 418.902 227.465 418.187C227.332 417.473 227.066 416.626 226.651 415.662C226.235 414.698 225.67 413.635 224.972 412.455C224.274 411.292 223.442 410.029 222.478 408.7C221.63 407.52 220.832 406.523 220.134 405.743C219.419 404.962 218.754 404.314 218.139 403.799C217.524 403.284 216.942 402.885 216.41 402.619C215.862 402.336 215.33 402.104 214.815 401.904L227.299 419.849Z" fill="#FCB048"/>
<path d="M221.066 396.106C203.412 371.299 182.848 347.025 175.683 345.895C175.65 346.161 175.6 346.426 175.533 346.692C180.953 348.088 199.073 367.312 220.069 396.82C241.597 427.076 253.915 450.953 252.785 455.721C253.034 455.738 253.3 455.754 253.55 455.804C255.478 449.258 239.02 421.344 221.066 396.106Z" fill="url(#paint43_linear_68_3292)"/>
<path d="M363.516 243.645C364.38 242.947 365.527 241.817 366.175 240.139C366.874 238.328 366.392 237.531 367.273 236.401C368.386 234.972 370.681 234.357 372.26 235.055C372.592 235.205 372.991 235.404 373.241 235.836C373.939 237.016 372.393 239.059 371.146 240.139C370.215 240.953 369.833 240.903 368.835 241.585C367.871 242.266 366.658 243.429 365.677 245.589L363.516 243.645Z" fill="url(#paint44_linear_68_3292)"/>
<path d="M415.316 233.759C414.252 233.46 412.756 232.862 411.492 231.566C410.146 230.17 410.279 229.24 409.032 228.542C407.436 227.661 405.092 227.993 403.928 229.24C403.679 229.505 403.396 229.854 403.33 230.353C403.147 231.715 405.375 232.978 406.937 233.51C408.118 233.892 408.45 233.692 409.63 233.958C410.778 234.208 412.357 234.806 414.086 236.417L415.316 233.759Z" fill="url(#paint45_linear_68_3292)"/>
<path d="M410.361 235.437C409.68 238.71 413.221 241.618 415.764 244.476C420.884 250.208 426.254 260.443 424.276 269.232C423.195 274.034 419.754 279.218 414.883 281.677C409.646 284.319 406.504 281.91 401.052 285.067C400.653 285.299 393.754 289.387 393.554 294.886C393.305 301.682 403.313 308.926 411.874 309.474C427.534 310.488 446.402 289.669 445.521 269.016C444.557 246.536 420.386 228.691 413.437 231.715C412.356 232.197 410.744 233.593 410.361 235.437Z" fill="url(#paint46_linear_68_3292)"/>
<path d="M403.396 468.249L402.831 473.948L405.491 473.466L407.27 468.116L403.396 468.249Z" fill="url(#paint47_linear_68_3292)"/>
<path d="M419.572 363.008C419.289 373.127 418.026 381.784 416.546 388.845C414.934 396.455 414.003 397.767 413.504 403.018C412.407 414.449 416.097 416.094 416.779 429.02C417.527 443.293 413.737 454.641 412.241 458.978C410.927 462.766 409.564 465.823 408.534 467.933C407.22 469.08 405.225 468.631 403.114 468.199C402.333 455.256 401.369 443.06 400.587 430.117C398.077 410.644 395.567 391.154 393.057 371.681C401.884 368.79 410.728 365.899 419.572 363.008Z" fill="url(#paint48_linear_68_3292)"/>
<path opacity="0.3" d="M403.098 468.216C402.317 455.272 401.353 443.077 400.572 430.134C398.061 410.661 395.551 391.171 393.041 371.698C401.885 368.807 410.729 365.916 419.573 363.025C419.556 363.69 419.523 364.338 419.49 365.002C407.088 375.769 404.661 384.292 404.777 390.108C404.927 397.169 408.784 400.658 408.036 410.893C407.504 418.204 405.293 419.5 405.293 426.096C405.293 434.603 408.95 439.372 410.729 444.29C412.441 449.042 413.056 455.754 409.731 465.325C409.299 466.305 408.884 467.202 408.518 467.95C407.205 469.08 405.21 468.631 403.098 468.216Z" fill="url(#paint49_linear_68_3292)"/>
<path d="M404.394 475.892C405.658 474.33 406.805 474.446 407.021 473.4C407.187 472.569 406.655 471.572 405.891 471.206C404.81 470.691 403.53 471.555 403.231 471.755C401.269 473.101 401.851 475.111 399.989 476.025C399.607 476.208 399.025 476.407 398.393 477.022C398.127 477.271 397.479 477.919 397.645 478.334C397.828 478.833 399.025 478.783 400.155 478.75C401.502 478.7 402.183 478.683 402.832 478.251C403.696 477.67 403.414 477.105 404.394 475.892Z" fill="url(#paint50_linear_68_3292)"/>
<path d="M401.717 427.16L406.687 429.104L408.134 426.827L404.244 424.219L401.717 427.16Z" fill="url(#paint51_linear_68_3292)"/>
<path d="M409.298 430.316C408.999 428.339 409.88 427.575 409.231 426.694C408.733 426.013 407.635 425.714 406.838 426.03C405.724 426.478 405.491 428.007 405.441 428.356C405.092 430.715 406.97 431.646 406.389 433.639C406.272 434.038 406.006 434.62 406.04 435.484C406.056 435.849 406.073 436.763 406.505 436.929C407.004 437.129 407.768 436.231 408.5 435.367C409.381 434.337 409.83 433.822 409.946 433.075C410.129 432.011 409.531 431.828 409.298 430.316Z" fill="url(#paint52_linear_68_3292)"/>
<path d="M380.239 354.003C370.996 372.845 367.854 388.562 366.657 398.831C365.892 405.427 365.975 409.514 367.87 413.618C374.686 428.289 398.442 429.27 402.049 429.369C403.23 426.944 404.427 424.501 405.607 422.075C403.429 418.021 399.606 412.389 393.072 408.285C388.052 405.128 386.09 405.809 384.827 403.682C379.79 395.175 406.953 376.732 402.897 364.454C401.517 360.217 396.115 355.897 380.239 354.003Z" fill="url(#paint53_linear_68_3292)"/>
<path d="M400.287 286.263C390.296 287.974 382.683 289.769 379.291 295.002C375.701 300.535 381.403 304.689 382.965 316.802C385.342 335.361 374.67 342.289 377.729 360.981C378.227 364.038 378.992 366.747 379.807 369.056C381.253 373.127 384.046 376.566 387.703 378.859C390.446 380.587 393.787 382.315 397.711 383.694C407.851 387.233 412.838 385.173 426.47 385.954C448.763 387.233 452.104 393.697 462.178 389.709C472.352 385.688 479.733 374.838 477.572 370.203C476.276 367.428 472.203 369.156 466.351 365.75C458.804 361.347 460.084 355.349 453.966 350.215C445.172 342.821 436.727 350.281 429.213 343.868C421.616 337.371 420.702 321.553 423.927 312.133C426.038 305.985 426.071 299.306 427.65 292.992C427.783 292.46 427.883 291.63 427.551 290.682C426.304 287.06 419.671 286.363 414.651 285.881C406.987 285.15 401.102 286.13 400.287 286.263Z" fill="url(#paint54_linear_68_3292)"/>
<path opacity="0.3" d="M460.998 382.681C457.906 380.621 459.585 374.789 455.013 371.698C450.774 368.824 447.466 372.579 441.199 370.668C433.17 368.209 433.602 360.483 425.905 358.024C420.369 356.246 418.707 359.785 410.727 359.935C402.764 360.084 392.324 356.811 385.725 348.37C382.915 344.782 381.353 340.96 380.488 337.421C378.36 344.3 376.049 350.946 377.695 360.965C378.36 365.019 379.491 368.491 380.604 371.216C381.635 373.758 383.397 375.952 385.642 377.513C388.717 379.657 392.723 381.95 397.661 383.678C407.801 387.217 412.788 385.156 426.42 385.937C448.713 387.217 452.054 393.68 462.128 389.692C468.628 387.117 473.981 381.767 476.442 377.015C467.664 383.462 463.242 384.176 460.998 382.681Z" fill="url(#paint55_linear_68_3292)"/>
<path d="M394.502 268.983C394.502 268.983 391.743 274.15 391.577 277.773C391.41 281.395 395.5 281.129 395.5 281.129L395.35 283.422C395.217 285.382 393.954 287.06 392.109 287.742L390.496 288.34C390.496 288.34 401.036 290.599 406.804 286.529L405.142 286.363C402.798 286.13 400.936 284.286 400.686 281.926L400.587 280.946C400.587 280.946 402.415 269.648 394.502 268.983Z" fill="url(#paint56_linear_68_3292)"/>
<path d="M368.553 244.675C370.115 247.633 367.522 251.404 365.86 254.86C362.518 261.789 360.191 273.104 364.496 280.996C366.857 285.316 371.595 289.353 376.964 290.367C382.733 291.463 385.077 288.29 391.195 289.802C391.643 289.918 399.39 291.945 401.102 297.179C403.214 303.642 395.6 313.362 387.521 316.253C372.742 321.537 348.87 306.733 344.016 286.645C338.729 264.763 357.049 240.953 364.563 241.95C365.727 242.116 367.672 243.014 368.553 244.675Z" fill="url(#paint57_linear_68_3292)"/>
<path d="M396.149 274.117C396.697 274.067 397.146 273.386 397.512 273.585C397.911 273.801 397.861 274.815 397.512 275.513C397.229 276.094 396.781 276.427 396.531 276.576C396.947 277.158 397.495 278.055 397.711 279.251C398.21 281.876 396.814 283.97 396.232 285.216C393.622 290.766 397.678 299.555 402.133 303.991C405.758 307.597 407.453 306.151 409.614 309.092C413.82 314.824 408.018 321.121 410.196 328.848C413.504 340.578 432.04 344.067 432.805 344.2C433.104 344.25 433.303 344.283 433.619 344.333C441.931 345.645 454.532 347.656 463.409 340.827C470.042 335.726 473.101 326.837 472.586 319.011C472.453 316.951 471.838 309.142 465.454 302.762C464.44 301.748 458.456 295.767 450.376 295.7C446.087 295.667 445.223 297.162 441.948 296.232C437.459 294.953 434.7 290.882 432.988 288.356C429.829 283.704 431.109 282.707 428.848 280.431C424.41 275.945 419.19 279.467 414.435 275.513C409.764 271.608 412.573 266.325 408.068 262.952C403.414 259.479 394.503 260.692 392.591 264.829C390.995 268.402 394.486 274.25 396.149 274.117Z" fill="url(#paint58_linear_68_3292)"/>
<defs>
<linearGradient id="paint0_linear_68_3292" x1="493.479" y1="239.167" x2="66.5091" y2="514.153" gradientUnits="userSpaceOnUse">
<stop offset="0.00359712" stop-color="#E38DDD"/>
<stop offset="1" stop-color="#9571F6"/>
</linearGradient>
<linearGradient id="paint1_linear_68_3292" x1="423.382" y1="74.2611" x2="366.699" y2="381.544" gradientUnits="userSpaceOnUse">
<stop stop-color="#FF9085"/>
<stop offset="1" stop-color="#FB6FBB"/>
</linearGradient>
<linearGradient id="paint2_linear_68_3292" x1="121.684" y1="498.788" x2="401.404" y2="-36.22" gradientUnits="userSpaceOnUse">
<stop stop-color="#444B8C"/>
<stop offset="0.9964" stop-color="#26264F"/>
</linearGradient>
<linearGradient id="paint3_linear_68_3292" x1="-49.7092" y1="848.552" x2="230.011" y2="313.544" gradientUnits="userSpaceOnUse">
<stop stop-color="#AA80F9"/>
<stop offset="0.9964" stop-color="#6165D7"/>
</linearGradient>
<linearGradient id="paint4_linear_68_3292" x1="362.46" y1="140.348" x2="-124.531" y2="679.358" gradientUnits="userSpaceOnUse">
<stop stop-color="#AA80F9"/>
<stop offset="0.9964" stop-color="#6165D7"/>
</linearGradient>
<linearGradient id="paint5_linear_68_3292" x1="78.4524" y1="253.739" x2="372.921" y2="253.739" gradientUnits="userSpaceOnUse">
<stop stop-color="#AA80F9"/>
<stop offset="0.9964" stop-color="#6165D7"/>
</linearGradient>
<linearGradient id="paint6_linear_68_3292" x1="112.246" y1="269.168" x2="301.173" y2="10.1058" gradientUnits="userSpaceOnUse">
<stop stop-color="#FCB148"/>
<stop offset="0.0520724" stop-color="#FDBA46"/>
<stop offset="0.1424" stop-color="#FFC244"/>
<stop offset="0.3183" stop-color="#FFC444"/>
<stop offset="0.4849" stop-color="#FDB946"/>
<stop offset="0.7754" stop-color="#F99C4D"/>
<stop offset="0.8658" stop-color="#F8924F"/>
<stop offset="1" stop-color="#F8924F"/>
</linearGradient>
<linearGradient id="paint7_linear_68_3292" x1="265.89" y1="144.658" x2="335.729" y2="48.8918" gradientUnits="userSpaceOnUse">
<stop stop-color="#FCB148"/>
<stop offset="0.0520724" stop-color="#FDBA46"/>
<stop offset="0.1424" stop-color="#FFC244"/>
<stop offset="0.3183" stop-color="#FFC444"/>
<stop offset="0.4849" stop-color="#FDB946"/>
<stop offset="0.7754" stop-color="#F99C4D"/>
<stop offset="0.8658" stop-color="#F8924F"/>
<stop offset="1" stop-color="#F8924F"/>
</linearGradient>
<linearGradient id="paint8_linear_68_3292" x1="18.4287" y1="458.863" x2="175.589" y2="458.863" gradientUnits="userSpaceOnUse">
<stop stop-color="#FCB148"/>
<stop offset="0.0520724" stop-color="#FDBA46"/>
<stop offset="0.1424" stop-color="#FFC244"/>
<stop offset="0.3183" stop-color="#FFC444"/>
<stop offset="0.4849" stop-color="#FDB946"/>
<stop offset="0.7754" stop-color="#F99C4D"/>
<stop offset="0.8658" stop-color="#F8924F"/>
<stop offset="1" stop-color="#F8924F"/>
</linearGradient>
<linearGradient id="paint9_linear_68_3292" x1="97.7312" y1="441.168" x2="106.008" y2="510.493" gradientUnits="userSpaceOnUse">
<stop stop-color="#FFDB44"/>
<stop offset="1" stop-color="#FEEF06"/>
</linearGradient>
<linearGradient id="paint10_linear_68_3292" x1="97.371" y1="438.077" x2="99.9129" y2="459.368" gradientUnits="userSpaceOnUse">
<stop stop-color="#FFDB44"/>
<stop offset="1" stop-color="#FEEF06"/>
</linearGradient>
<linearGradient id="paint11_linear_68_3292" x1="99.7634" y1="457.135" x2="97.2306" y2="435.92" gradientUnits="userSpaceOnUse">
<stop offset="0.00359712" stop-color="#F36F56"/>
<stop offset="0.3059" stop-color="#F99C4C"/>
<stop offset="0.545" stop-color="#FDB946"/>
<stop offset="0.6817" stop-color="#FFC444"/>
<stop offset="0.8038" stop-color="#FFC244"/>
<stop offset="0.8667" stop-color="#FEBA46"/>
<stop offset="0.916" stop-color="#FCAD49"/>
<stop offset="0.958" stop-color="#F99A4D"/>
<stop offset="0.9955" stop-color="#F58152"/>
<stop offset="1" stop-color="#F57E53"/>
</linearGradient>
<linearGradient id="paint12_linear_68_3292" x1="-0.559328" y1="442.957" x2="156.601" y2="442.957" gradientUnits="userSpaceOnUse">
<stop stop-color="#FCB148"/>
<stop offset="0.0520724" stop-color="#FDBA46"/>
<stop offset="0.1424" stop-color="#FFC244"/>
<stop offset="0.3183" stop-color="#FFC444"/>
<stop offset="0.4849" stop-color="#FDB946"/>
<stop offset="0.7754" stop-color="#F99C4D"/>
<stop offset="0.8658" stop-color="#F8924F"/>
<stop offset="1" stop-color="#F8924F"/>
</linearGradient>
<linearGradient id="paint13_linear_68_3292" x1="78.7431" y1="425.263" x2="87.0198" y2="494.588" gradientUnits="userSpaceOnUse">
<stop stop-color="#FFDB44"/>
<stop offset="1" stop-color="#FEEF06"/>
</linearGradient>
<linearGradient id="paint14_linear_68_3292" x1="78.383" y1="422.172" x2="80.9249" y2="443.462" gradientUnits="userSpaceOnUse">
<stop stop-color="#FFDB44"/>
<stop offset="1" stop-color="#FEEF06"/>
</linearGradient>
<linearGradient id="paint15_linear_68_3292" x1="80.7753" y1="441.23" x2="78.2425" y2="420.015" gradientUnits="userSpaceOnUse">
<stop offset="0.00359712" stop-color="#F36F56"/>
<stop offset="0.3059" stop-color="#F99C4C"/>
<stop offset="0.545" stop-color="#FDB946"/>
<stop offset="0.6817" stop-color="#FFC444"/>
<stop offset="0.8038" stop-color="#FFC244"/>
<stop offset="0.8667" stop-color="#FEBA46"/>
<stop offset="0.916" stop-color="#FCAD49"/>
<stop offset="0.958" stop-color="#F99A4D"/>
<stop offset="0.9955" stop-color="#F58152"/>
<stop offset="1" stop-color="#F57E53"/>
</linearGradient>
<linearGradient id="paint16_linear_68_3292" x1="15.8252" y1="427.099" x2="172.986" y2="427.099" gradientUnits="userSpaceOnUse">
<stop stop-color="#FCB148"/>
<stop offset="0.0520724" stop-color="#FDBA46"/>
<stop offset="0.1424" stop-color="#FFC244"/>
<stop offset="0.3183" stop-color="#FFC444"/>
<stop offset="0.4849" stop-color="#FDB946"/>
<stop offset="0.7754" stop-color="#F99C4D"/>
<stop offset="0.8658" stop-color="#F8924F"/>
<stop offset="1" stop-color="#F8924F"/>
</linearGradient>
<linearGradient id="paint17_linear_68_3292" x1="95.1278" y1="409.405" x2="103.404" y2="478.729" gradientUnits="userSpaceOnUse">
<stop stop-color="#FFDB44"/>
<stop offset="1" stop-color="#FEEF06"/>
</linearGradient>
<linearGradient id="paint18_linear_68_3292" x1="94.7677" y1="406.313" x2="97.3096" y2="427.604" gradientUnits="userSpaceOnUse">
<stop stop-color="#FFDB44"/>
<stop offset="1" stop-color="#FEEF06"/>
</linearGradient>
<linearGradient id="paint19_linear_68_3292" x1="97.16" y1="425.372" x2="94.6272" y2="404.156" gradientUnits="userSpaceOnUse">
<stop offset="0.00359712" stop-color="#F36F56"/>
<stop offset="0.3059" stop-color="#F99C4C"/>
<stop offset="0.545" stop-color="#FDB946"/>
<stop offset="0.6817" stop-color="#FFC444"/>
<stop offset="0.8038" stop-color="#FFC244"/>
<stop offset="0.8667" stop-color="#FEBA46"/>
<stop offset="0.916" stop-color="#FCAD49"/>
<stop offset="0.958" stop-color="#F99A4D"/>
<stop offset="0.9955" stop-color="#F58152"/>
<stop offset="1" stop-color="#F57E53"/>
</linearGradient>
<linearGradient id="paint20_linear_68_3292" x1="25.7672" y1="411.194" x2="182.928" y2="411.194" gradientUnits="userSpaceOnUse">
<stop stop-color="#FCB148"/>
<stop offset="0.0520724" stop-color="#FDBA46"/>
<stop offset="0.1424" stop-color="#FFC244"/>
<stop offset="0.3183" stop-color="#FFC444"/>
<stop offset="0.4849" stop-color="#FDB946"/>
<stop offset="0.7754" stop-color="#F99C4D"/>
<stop offset="0.8658" stop-color="#F8924F"/>
<stop offset="1" stop-color="#F8924F"/>
</linearGradient>
<linearGradient id="paint21_linear_68_3292" x1="105.07" y1="393.5" x2="113.346" y2="462.824" gradientUnits="userSpaceOnUse">
<stop stop-color="#FFDB44"/>
<stop offset="1" stop-color="#FEEF06"/>
</linearGradient>
<linearGradient id="paint22_linear_68_3292" x1="104.709" y1="390.408" x2="107.251" y2="411.699" gradientUnits="userSpaceOnUse">
<stop stop-color="#FFDB44"/>
<stop offset="1" stop-color="#FEEF06"/>
</linearGradient>
<linearGradient id="paint23_linear_68_3292" x1="107.102" y1="409.467" x2="104.569" y2="388.251" gradientUnits="userSpaceOnUse">
<stop offset="0.00359712" stop-color="#F36F56"/>
<stop offset="0.3059" stop-color="#F99C4C"/>
<stop offset="0.545" stop-color="#FDB946"/>
<stop offset="0.6817" stop-color="#FFC444"/>
<stop offset="0.8038" stop-color="#FFC244"/>
<stop offset="0.8667" stop-color="#FEBA46"/>
<stop offset="0.916" stop-color="#FCAD49"/>
<stop offset="0.958" stop-color="#F99A4D"/>
<stop offset="0.9955" stop-color="#F58152"/>
<stop offset="1" stop-color="#F57E53"/>
</linearGradient>
<linearGradient id="paint24_linear_68_3292" x1="18.4287" y1="394.034" x2="175.589" y2="394.034" gradientUnits="userSpaceOnUse">
<stop stop-color="#FCB148"/>
<stop offset="0.0520724" stop-color="#FDBA46"/>
<stop offset="0.1424" stop-color="#FFC244"/>
<stop offset="0.3183" stop-color="#FFC444"/>
<stop offset="0.4849" stop-color="#FDB946"/>
<stop offset="0.7754" stop-color="#F99C4D"/>
<stop offset="0.8658" stop-color="#F8924F"/>
<stop offset="1" stop-color="#F8924F"/>
</linearGradient>
<linearGradient id="paint25_linear_68_3292" x1="97.7312" y1="376.34" x2="106.008" y2="445.665" gradientUnits="userSpaceOnUse">
<stop stop-color="#FFDB44"/>
<stop offset="1" stop-color="#FEEF06"/>
</linearGradient>
<linearGradient id="paint26_linear_68_3292" x1="97.371" y1="373.248" x2="99.9129" y2="394.539" gradientUnits="userSpaceOnUse">
<stop stop-color="#FFDB44"/>
<stop offset="1" stop-color="#FEEF06"/>
</linearGradient>
<linearGradient id="paint27_linear_68_3292" x1="99.7634" y1="392.307" x2="97.2306" y2="371.091" gradientUnits="userSpaceOnUse">
<stop offset="0.00359712" stop-color="#F36F56"/>
<stop offset="0.3059" stop-color="#F99C4C"/>
<stop offset="0.545" stop-color="#FDB946"/>
<stop offset="0.6817" stop-color="#FFC444"/>
<stop offset="0.8038" stop-color="#FFC244"/>
<stop offset="0.8667" stop-color="#FEBA46"/>
<stop offset="0.916" stop-color="#FCAD49"/>
<stop offset="0.958" stop-color="#F99A4D"/>
<stop offset="0.9955" stop-color="#F58152"/>
<stop offset="1" stop-color="#F57E53"/>
</linearGradient>
<linearGradient id="paint28_linear_68_3292" x1="-0.559328" y1="378.129" x2="156.601" y2="378.129" gradientUnits="userSpaceOnUse">
<stop stop-color="#FCB148"/>
<stop offset="0.0520724" stop-color="#FDBA46"/>
<stop offset="0.1424" stop-color="#FFC244"/>
<stop offset="0.3183" stop-color="#FFC444"/>
<stop offset="0.4849" stop-color="#FDB946"/>
<stop offset="0.7754" stop-color="#F99C4D"/>
<stop offset="0.8658" stop-color="#F8924F"/>
<stop offset="1" stop-color="#F8924F"/>
</linearGradient>
<linearGradient id="paint29_linear_68_3292" x1="78.7431" y1="360.435" x2="87.0199" y2="429.76" gradientUnits="userSpaceOnUse">
<stop stop-color="#FFDB44"/>
<stop offset="1" stop-color="#FEEF06"/>
</linearGradient>
<linearGradient id="paint30_linear_68_3292" x1="78.383" y1="357.343" x2="80.9249" y2="378.634" gradientUnits="userSpaceOnUse">
<stop stop-color="#FFDB44"/>
<stop offset="1" stop-color="#FEEF06"/>
</linearGradient>
<linearGradient id="paint31_linear_68_3292" x1="80.7753" y1="376.402" x2="78.2425" y2="355.186" gradientUnits="userSpaceOnUse">
<stop offset="0.00359712" stop-color="#F36F56"/>
<stop offset="0.3059" stop-color="#F99C4C"/>
<stop offset="0.545" stop-color="#FDB946"/>
<stop offset="0.6817" stop-color="#FFC444"/>
<stop offset="0.8038" stop-color="#FFC244"/>
<stop offset="0.8667" stop-color="#FEBA46"/>
<stop offset="0.916" stop-color="#FCAD49"/>
<stop offset="0.958" stop-color="#F99A4D"/>
<stop offset="0.9955" stop-color="#F58152"/>
<stop offset="1" stop-color="#F57E53"/>
</linearGradient>
<linearGradient id="paint32_linear_68_3292" x1="15.8252" y1="362.271" x2="172.986" y2="362.271" gradientUnits="userSpaceOnUse">
<stop stop-color="#FCB148"/>
<stop offset="0.0520724" stop-color="#FDBA46"/>
<stop offset="0.1424" stop-color="#FFC244"/>
<stop offset="0.3183" stop-color="#FFC444"/>
<stop offset="0.4849" stop-color="#FDB946"/>
<stop offset="0.7754" stop-color="#F99C4D"/>
<stop offset="0.8658" stop-color="#F8924F"/>
<stop offset="1" stop-color="#F8924F"/>
</linearGradient>
<linearGradient id="paint33_linear_68_3292" x1="95.1278" y1="344.576" x2="103.405" y2="413.901" gradientUnits="userSpaceOnUse">
<stop stop-color="#FFDB44"/>
<stop offset="1" stop-color="#FEEF06"/>
</linearGradient>
<linearGradient id="paint34_linear_68_3292" x1="94.7677" y1="341.485" x2="97.3096" y2="362.776" gradientUnits="userSpaceOnUse">
<stop stop-color="#FFDB44"/>
<stop offset="1" stop-color="#FEEF06"/>
</linearGradient>
<linearGradient id="paint35_linear_68_3292" x1="97.16" y1="360.543" x2="94.6272" y2="339.328" gradientUnits="userSpaceOnUse">
<stop offset="0.00359712" stop-color="#F36F56"/>
<stop offset="0.3059" stop-color="#F99C4C"/>
<stop offset="0.545" stop-color="#FDB946"/>
<stop offset="0.6817" stop-color="#FFC444"/>
<stop offset="0.8038" stop-color="#FFC244"/>
<stop offset="0.8667" stop-color="#FEBA46"/>
<stop offset="0.916" stop-color="#FCAD49"/>
<stop offset="0.958" stop-color="#F99A4D"/>
<stop offset="0.9955" stop-color="#F58152"/>
<stop offset="1" stop-color="#F57E53"/>
</linearGradient>
<linearGradient id="paint36_linear_68_3292" x1="7.30299" y1="346.365" x2="164.463" y2="346.365" gradientUnits="userSpaceOnUse">
<stop stop-color="#FCB148"/>
<stop offset="0.0520724" stop-color="#FDBA46"/>
<stop offset="0.1424" stop-color="#FFC244"/>
<stop offset="0.3183" stop-color="#FFC444"/>
<stop offset="0.4849" stop-color="#FDB946"/>
<stop offset="0.7754" stop-color="#F99C4D"/>
<stop offset="0.8658" stop-color="#F8924F"/>
<stop offset="1" stop-color="#F8924F"/>
</linearGradient>
<linearGradient id="paint37_linear_68_3292" x1="86.6055" y1="328.671" x2="94.8821" y2="397.996" gradientUnits="userSpaceOnUse">
<stop stop-color="#FFDB44"/>
<stop offset="1" stop-color="#FEEF06"/>
</linearGradient>
<linearGradient id="paint38_linear_68_3292" x1="86.2453" y1="325.58" x2="88.7872" y2="346.87" gradientUnits="userSpaceOnUse">
<stop stop-color="#FFDB44"/>
<stop offset="1" stop-color="#FEEF06"/>
</linearGradient>
<linearGradient id="paint39_linear_68_3292" x1="88.6377" y1="344.638" x2="86.1049" y2="323.423" gradientUnits="userSpaceOnUse">
<stop offset="0.00359712" stop-color="#F36F56"/>
<stop offset="0.3059" stop-color="#F99C4C"/>
<stop offset="0.545" stop-color="#FDB946"/>
<stop offset="0.6817" stop-color="#FFC444"/>
<stop offset="0.8038" stop-color="#FFC244"/>
<stop offset="0.8667" stop-color="#FEBA46"/>
<stop offset="0.916" stop-color="#FCAD49"/>
<stop offset="0.958" stop-color="#F99A4D"/>
<stop offset="0.9955" stop-color="#F58152"/>
<stop offset="1" stop-color="#F57E53"/>
</linearGradient>
<linearGradient id="paint40_linear_68_3292" x1="158.469" y1="342.481" x2="249.496" y2="470.53" gradientUnits="userSpaceOnUse">
<stop stop-color="#FCB148"/>
<stop offset="0.0520724" stop-color="#FDBA46"/>
<stop offset="0.1424" stop-color="#FFC244"/>
<stop offset="0.3183" stop-color="#FFC444"/>
<stop offset="0.4849" stop-color="#FDB946"/>
<stop offset="0.7754" stop-color="#F99C4D"/>
<stop offset="0.8658" stop-color="#F8924F"/>
<stop offset="1" stop-color="#F8924F"/>
</linearGradient>
<linearGradient id="paint41_linear_68_3292" x1="218.858" y1="396.816" x2="167.169" y2="443.766" gradientUnits="userSpaceOnUse">
<stop stop-color="#FFDB44"/>
<stop offset="1" stop-color="#FEEF06"/>
</linearGradient>
<linearGradient id="paint42_linear_68_3292" x1="221.169" y1="394.732" x2="205.295" y2="409.15" gradientUnits="userSpaceOnUse">
<stop stop-color="#FFDB44"/>
<stop offset="1" stop-color="#FEEF06"/>
</linearGradient>
<linearGradient id="paint43_linear_68_3292" x1="207.02" y1="407.724" x2="222.837" y2="393.356" gradientUnits="userSpaceOnUse">
<stop offset="0.00359712" stop-color="#F36F56"/>
<stop offset="0.3059" stop-color="#F99C4C"/>
<stop offset="0.545" stop-color="#FDB946"/>
<stop offset="0.6817" stop-color="#FFC444"/>
<stop offset="0.8038" stop-color="#FFC244"/>
<stop offset="0.8667" stop-color="#FEBA46"/>
<stop offset="0.916" stop-color="#FCAD49"/>
<stop offset="0.958" stop-color="#F99A4D"/>
<stop offset="0.9955" stop-color="#F58152"/>
<stop offset="1" stop-color="#F57E53"/>
</linearGradient>
<linearGradient id="paint44_linear_68_3292" x1="368.062" y1="237.663" x2="370.645" y2="252.733" gradientUnits="userSpaceOnUse">
<stop stop-color="#FFC444"/>
<stop offset="0.9964" stop-color="#F36F56"/>
</linearGradient>
<linearGradient id="paint45_linear_68_3292" x1="408.788" y1="230.022" x2="412.288" y2="244.907" gradientUnits="userSpaceOnUse">
<stop stop-color="#FFC444"/>
<stop offset="0.9964" stop-color="#F36F56"/>
</linearGradient>
<linearGradient id="paint46_linear_68_3292" x1="416.114" y1="250.708" x2="429.24" y2="370.083" gradientUnits="userSpaceOnUse">
<stop stop-color="#FF9085"/>
<stop offset="1" stop-color="#FB6FBB"/>
</linearGradient>
<linearGradient id="paint47_linear_68_3292" x1="405.401" y1="480.965" x2="403.443" y2="425.345" gradientUnits="userSpaceOnUse">
<stop stop-color="#FFC444"/>
<stop offset="0.9964" stop-color="#F36F56"/>
</linearGradient>
<linearGradient id="paint48_linear_68_3292" x1="406.83" y1="373.919" x2="414.94" y2="475.615" gradientUnits="userSpaceOnUse">
<stop stop-color="#311944"/>
<stop offset="1" stop-color="#893976"/>
</linearGradient>
<linearGradient id="paint49_linear_68_3292" x1="406.831" y1="373.919" x2="414.941" y2="475.615" gradientUnits="userSpaceOnUse">
<stop stop-color="#311944"/>
<stop offset="1" stop-color="#893976"/>
</linearGradient>
<linearGradient id="paint50_linear_68_3292" x1="400.811" y1="481.414" x2="409.032" y2="450.402" gradientUnits="userSpaceOnUse">
<stop stop-color="#FF9085"/>
<stop offset="1" stop-color="#FB6FBB"/>
</linearGradient>
<linearGradient id="paint51_linear_68_3292" x1="411.75" y1="432.865" x2="374.354" y2="400.68" gradientUnits="userSpaceOnUse">
<stop stop-color="#FFC444"/>
<stop offset="0.9964" stop-color="#F36F56"/>
</linearGradient>
<linearGradient id="paint52_linear_68_3292" x1="410.928" y1="436.681" x2="393.728" y2="409.592" gradientUnits="userSpaceOnUse">
<stop stop-color="#FF9085"/>
<stop offset="1" stop-color="#FB6FBB"/>
</linearGradient>
<linearGradient id="paint53_linear_68_3292" x1="444.75" y1="394.126" x2="349.705" y2="389.803" gradientUnits="userSpaceOnUse">
<stop stop-color="#311944"/>
<stop offset="1" stop-color="#893976"/>
</linearGradient>
<linearGradient id="paint54_linear_68_3292" x1="406.986" y1="244.825" x2="430.597" y2="382.568" gradientUnits="userSpaceOnUse">
<stop stop-color="#FF9085"/>
<stop offset="1" stop-color="#FB6FBB"/>
</linearGradient>
<linearGradient id="paint55_linear_68_3292" x1="369.717" y1="299.222" x2="434.417" y2="382.174" gradientUnits="userSpaceOnUse">
<stop stop-color="#FF9085"/>
<stop offset="1" stop-color="#FB6FBB"/>
</linearGradient>
<linearGradient id="paint56_linear_68_3292" x1="392.336" y1="276.254" x2="403.554" y2="293.058" gradientUnits="userSpaceOnUse">
<stop stop-color="#FFC444"/>
<stop offset="0.9964" stop-color="#F36F56"/>
</linearGradient>
<linearGradient id="paint57_linear_68_3292" x1="367.229" y1="260.941" x2="387.519" y2="379.31" gradientUnits="userSpaceOnUse">
<stop stop-color="#FF9085"/>
<stop offset="1" stop-color="#FB6FBB"/>
</linearGradient>
<linearGradient id="paint58_linear_68_3292" x1="453.863" y1="346.106" x2="407.73" y2="255.893" gradientUnits="userSpaceOnUse">
<stop stop-color="#444B8C"/>
<stop offset="0.9964" stop-color="#26264F"/>
</linearGradient>
</defs>
</svg>
